<?xml version="1.0" encoding="utf-8"?>
<!-- Generator: Adobe Illustrator 27.5.0, SVG Export Plug-In . SVG Version: 6.00 Build 0)  -->
<svg version="1.1" id="Layer_1" xmlns="http://www.w3.org/2000/svg" xmlns:xlink="http://www.w3.org/1999/xlink" x="0px" y="0px"
	 viewBox="0 0 720 720" style="enable-background:new 0 0 720 720;" xml:space="preserve">
<g>
	<g>
		<g>
			<defs>
				<rect id="SVGID_1_" x="288.389" y="288" width="144" height="144"/>
			</defs>
			<clipPath id="SVGID_00000062164412118116744250000000704845523675136913_">
				<use xlink:href="#SVGID_1_"  style="overflow:visible;"/>
			</clipPath>
			
				<rect x="288.389" y="288" style="clip-path:url(#SVGID_00000062164412118116744250000000704845523675136913_);fill:#C9CACC;" width="144" height="144"/>
			<path style="clip-path:url(#SVGID_00000062164412118116744250000000704845523675136913_);fill:#C9CACC;" d="M433.389,376.343V433
				h-146V288.813h-3.058c2.569-0.772,5.173-1.51,7.81-2.211V287h141.248V376.343z"/>
			<path style="clip-path:url(#SVGID_00000062164412118116744250000000704845523675136913_);fill:#CACBCD;" d="M433.389,376.383V433
				h-146V289.846h-2.164c2.539-0.763,5.113-1.492,7.721-2.186c10.431-2.775,21.394-4.987,32.773-6.565V287h107.671V376.383z"/>
			<path style="clip-path:url(#SVGID_00000062164412118116744250000000704845523675136913_);fill:#CBCCCE;" d="M433.389,376.423V433
				h-146V290.879h-1.271c2.51-0.754,5.055-1.475,7.632-2.161c10.31-2.744,21.147-4.93,32.396-6.489V287h102.44v-0.945
				c2.603,0.583,5.174,1.204,7.711,1.858h-2.908V376.423z"/>
			<path style="clip-path:url(#SVGID_00000062164412118116744250000000704845523675136913_);fill:#CCCDCF;" d="M433.389,376.462V433
				h-146V291.913h-0.378c2.481-0.746,4.996-1.458,7.544-2.136c20.382-5.423,42.844-8.643,66.48-9.11
				c23.637-0.467,46.209,1.863,66.789,6.477c2.572,0.577,5.113,1.19,7.621,1.836h-2.057V376.462z"/>
			<path style="clip-path:url(#SVGID_00000062164412118116744250000000704845523675136913_);fill:#CDCED0;" d="M433.389,376.502V433
				h-146V295.255h-6.736c4.764-1.603,9.671-3.08,14.707-4.419c20.142-5.359,42.34-8.542,65.699-9.003s45.666,1.842,66.005,6.401
				c2.542,0.57,5.053,1.175,7.532,1.814h-1.206V376.502z"/>
			<path style="clip-path:url(#SVGID_00000062164412118116744250000000704845523675136913_);fill:#CECFD1;" d="M433.389,376.542V433
				h-146V296.262h-5.758c4.708-1.585,9.557-3.043,14.532-4.367c19.903-5.296,41.837-8.44,64.918-8.896
				c23.081-0.456,45.122,1.82,65.219,6.326c2.513,0.564,4.994,1.162,7.443,1.794h-0.354V376.542z"/>
			<path style="clip-path:url(#SVGID_00000062164412118116744250000000704845523675136913_);fill:#CFD0D2;" d="M433.389,376.581V433
				h-146V297.268h-4.777c4.651-1.565,9.441-3.006,14.357-4.314c19.663-5.232,41.333-8.338,64.136-8.789
				c22.803-0.451,44.579,1.797,64.433,6.249c4.963,1.113,9.807,2.364,14.516,3.744h-6.664V376.581z"/>
			<path style="clip-path:url(#SVGID_00000062164412118116744250000000704845523675136913_);fill:#D0D1D3;" d="M433.389,376.621V433
				h-146V298.273h-3.799c4.595-1.546,9.326-2.97,14.182-4.262c19.423-5.168,40.83-8.237,63.355-8.682
				c22.525-0.445,44.037,1.776,63.649,6.173c4.903,1.099,9.688,2.335,14.339,3.698h-5.727V376.621z"/>
			<path style="clip-path:url(#SVGID_00000062164412118116744250000000704845523675136913_);fill:#D1D2D4;" d="M433.389,376.661V433
				h-146V299.279h-2.819c4.538-1.527,9.211-2.933,14.007-4.209c19.184-5.104,40.326-8.135,62.573-8.575
				c22.247-0.439,43.492,1.754,62.863,6.097c4.843,1.086,9.568,2.306,14.162,3.652h-4.787V376.661z"/>
			<path style="clip-path:url(#SVGID_00000062164412118116744250000000704845523675136913_);fill:#D2D3D5;" d="M433.389,376.7V433
				h-146V300.286h-1.84c4.481-1.508,9.096-2.896,13.833-4.157c18.944-5.04,39.823-8.033,61.792-8.467
				c21.97-0.434,42.95,1.732,62.079,6.02c4.782,1.072,9.449,2.277,13.986,3.607h-3.85V376.7z"/>
			<path style="clip-path:url(#SVGID_00000062164412118116744250000000704845523675136913_);fill:#D3D4D6;" d="M433.389,376.74V433
				h-146V301.292h-0.861c4.424-1.489,8.981-2.859,13.658-4.104c18.705-4.977,39.319-7.932,61.011-8.361
				c21.692-0.429,42.407,1.71,61.294,5.944c4.722,1.059,9.329,2.248,13.809,3.561h-2.91V376.74z"/>
			<path style="clip-path:url(#SVGID_00000062164412118116744250000000704845523675136913_);fill:#D4D5D7;" d="M433.389,376.78V433
				h-146V304.589h-6.334c2.117-0.793,4.268-1.557,6.452-2.292c4.368-1.47,8.866-2.823,13.483-4.052
				c18.465-4.913,38.816-7.83,60.23-8.253c21.413-0.423,41.863,1.688,60.509,5.868c4.661,1.045,9.209,2.22,13.632,3.516h-1.972
				V376.78z"/>
			<path style="clip-path:url(#SVGID_00000062164412118116744250000000704845523675136913_);fill:#D5D6D8;" d="M433.389,376.82V433
				h-146V305.565h-5.27c2.089-0.782,4.212-1.536,6.368-2.262c4.311-1.451,8.751-2.787,13.308-3.999
				c18.226-4.849,38.312-7.729,59.448-8.146c21.136-0.418,41.32,1.666,59.724,5.792c4.601,1.031,9.091,2.19,13.456,3.47h-1.033
				V376.82z"/>
			<path style="clip-path:url(#SVGID_00000062164412118116744250000000704845523675136913_);fill:#D6D7D9;" d="M433.389,376.859V433
				h-146V306.543h-4.207c2.062-0.772,4.157-1.516,6.285-2.232c4.254-1.432,8.636-2.75,13.132-3.947
				c17.986-4.786,37.809-7.628,58.667-8.04c20.858-0.412,40.777,1.645,58.939,5.716c4.54,1.018,8.971,2.162,13.278,3.425h-0.094
				V376.859z"/>
			<path style="clip-path:url(#SVGID_00000062164412118116744250000000704845523675136913_);fill:#D7D8D9;" d="M433.389,376.899V433
				h-146V307.519h-3.144c2.035-0.762,4.102-1.497,6.201-2.203c4.198-1.413,8.521-2.713,12.957-3.893
				c17.746-4.722,37.305-7.525,57.885-7.932c20.581-0.407,40.235,1.623,58.154,5.64c4.479,1.004,8.851,2.133,13.101,3.379
				c2.125,0.623,4.221,1.275,6.283,1.956h-5.438V376.899z"/>
			<path style="clip-path:url(#SVGID_00000062164412118116744250000000704845523675136913_);fill:#D8D9DA;" d="M433.389,376.94V433
				h-146V308.495h-2.081c2.007-0.751,4.047-1.476,6.117-2.173c4.141-1.394,8.406-2.676,12.783-3.841
				c17.507-4.658,36.801-7.424,57.104-7.825c20.302-0.401,39.691,1.6,57.368,5.564c4.419,0.991,8.73,2.104,12.924,3.333
				c2.097,0.614,4.164,1.258,6.199,1.93h-4.414V376.94z"/>
			<path style="clip-path:url(#SVGID_00000062164412118116744250000000704845523675136913_);fill:#D9DADB;" d="M433.389,376.979V433
				h-146V311.773h-6.859c7.656-3.172,15.849-5.936,24.482-8.233c17.268-4.594,36.298-7.322,56.322-7.718
				c20.025-0.396,39.148,1.579,56.584,5.488c4.359,0.977,8.612,2.075,12.748,3.288c2.067,0.606,4.105,1.241,6.113,1.903h-3.391
				V376.979z"/>
			<path style="clip-path:url(#SVGID_00000062164412118116744250000000704845523675136913_);fill:#DADBDC;" d="M433.389,377.019V433
				h-146V312.717h-5.715c7.55-3.128,15.629-5.853,24.143-8.119c17.028-4.531,35.794-7.221,55.541-7.611
				c19.747-0.39,38.605,1.557,55.799,5.412c4.299,0.964,8.493,2.047,12.571,3.242c2.039,0.598,4.05,1.224,6.028,1.876h-2.367
				V377.019z"/>
			<path style="clip-path:url(#SVGID_00000062164412118116744250000000704845523675136913_);fill:#DBDCDD;" d="M433.389,377.059V433
				h-146V313.662h-4.571c7.443-3.085,15.409-5.772,23.804-8.005c16.788-4.467,35.29-7.119,54.76-7.503
				c19.469-0.384,38.061,1.535,55.014,5.336c4.238,0.95,8.373,2.018,12.394,3.197c2.011,0.589,3.992,1.206,5.944,1.85h-1.344
				V377.059z"/>
			<path style="clip-path:url(#SVGID_00000062164412118116744250000000704845523675136913_);fill:#DCDDDE;" d="M433.389,377.098V433
				h-146V314.606h-3.427c7.337-3.04,15.189-5.689,23.463-7.891c16.549-4.404,34.787-7.019,53.978-7.397
				c19.19-0.379,37.519,1.513,54.228,5.26c8.355,1.873,16.306,4.209,23.757,6.957h-6V377.098z"/>
			<path style="clip-path:url(#SVGID_00000062164412118116744250000000704845523675136913_);fill:#DDDEDF;" d="M433.389,377.138V433
				h-146V315.55h-2.283c7.231-2.997,14.97-5.607,23.124-7.777c16.31-4.339,34.284-6.916,53.197-7.289
				c18.913-0.374,36.975,1.491,53.443,5.183c8.233,1.846,16.069,4.149,23.413,6.857h-4.895V377.138z"/>
			<path style="clip-path:url(#SVGID_00000062164412118116744250000000704845523675136913_);fill:#DEDFE0;" d="M433.389,377.178V433
				h-146V316.495h-1.139c7.125-2.952,14.749-5.524,22.784-7.663c16.069-4.276,33.779-6.815,52.415-7.183
				c18.636-0.368,36.433,1.469,52.658,5.107c8.113,1.819,15.834,4.088,23.07,6.756h-3.789V377.178z"/>
			<path style="clip-path:url(#SVGID_00000062164412118116744250000000704845523675136913_);fill:#DFE0E1;" d="M433.389,377.218
				v55.235V433h-146V319.69h-5.165c1.692-0.773,3.416-1.523,5.17-2.25c7.019-2.908,14.53-5.442,22.445-7.548
				c15.83-4.212,33.276-6.713,51.634-7.076c18.357-0.363,35.889,1.447,51.873,5.031c7.992,1.791,15.597,4.027,22.725,6.656h-2.682
				V377.218z"/>
			<path style="clip-path:url(#SVGID_00000062164412118116744250000000704845523675136913_);fill:#E0E1E2;" d="M433.389,377.257
				v54.401V433h-146V320.6h-3.943c1.666-0.761,3.364-1.5,5.092-2.217c6.913-2.864,14.31-5.36,22.105-7.434
				c15.59-4.148,32.772-6.611,50.853-6.968c18.08-0.357,35.347,1.425,51.089,4.955c7.871,1.765,15.361,3.966,22.382,6.555h-1.577
				V377.257z"/>
			<path style="clip-path:url(#SVGID_00000062164412118116744250000000704845523675136913_);fill:#E1E2E3;" d="M433.389,377.297
				v53.564V433h-146V321.511h-2.721c1.641-0.75,3.313-1.478,5.014-2.183c6.806-2.82,14.09-5.277,21.765-7.32
				c15.351-4.085,32.269-6.51,50.071-6.861c17.802-0.352,34.803,1.403,50.304,4.878c7.75,1.738,15.125,3.905,22.037,6.455h-0.471
				V377.297z"/>
			<path style="clip-path:url(#SVGID_00000062164412118116744250000000704845523675136913_);fill:#E2E3E4;" d="M433.389,377.337
				v52.728V433h-146V324.698h-6.25c3.104-1.561,6.337-3.038,9.688-4.426c6.7-2.776,13.87-5.195,21.426-7.206
				c15.111-4.021,31.766-6.408,49.29-6.754c17.524-0.346,34.26,1.382,49.518,4.803c7.629,1.711,14.889,3.844,21.693,6.354
				c1.701,0.628,3.374,1.278,5.017,1.952h-4.382V377.337z"/>
			<path style="clip-path:url(#SVGID_00000062164412118116744250000000704845523675136913_);fill:#E3E4E5;" d="M433.389,377.376
				v51.893V433h-146V325.572h-4.952c3.055-1.536,6.236-2.99,9.533-4.356c6.594-2.732,13.65-5.112,21.086-7.091
				c14.872-3.957,31.262-6.307,48.508-6.647c17.246-0.34,33.717,1.36,48.733,4.727c7.509,1.683,14.653,3.783,21.35,6.253
				c1.675,0.618,3.321,1.258,4.938,1.921h-3.196V377.376z"/>
			<path style="clip-path:url(#SVGID_00000062164412118116744250000000704845523675136913_);fill:#E5E5E6;" d="M433.389,377.416
				v51.057V433h-146V326.447h-3.654c3.006-1.511,6.136-2.942,9.38-4.286c6.488-2.688,13.431-5.03,20.746-6.977
				c14.632-3.894,30.758-6.205,47.727-6.541c16.969-0.335,33.174,1.337,47.948,4.65c7.388,1.656,14.417,3.723,21.006,6.152
				c3.294,1.215,6.478,2.52,9.542,3.912h-6.695V377.416z"/>
			<path style="clip-path:url(#SVGID_00000062164412118116744250000000704845523675136913_);fill:#E6E6E7;" d="M433.389,377.456
				v50.222V433h-146V327.321h-2.357c2.957-1.486,6.036-2.894,9.227-4.216c6.382-2.645,13.211-4.948,20.407-6.863
				c14.393-3.83,30.254-6.103,46.945-6.433c16.69-0.33,32.63,1.316,47.163,4.574c7.267,1.629,14.182,3.661,20.662,6.051
				c3.24,1.195,6.372,2.479,9.385,3.848h-5.432V377.456z"/>
			<path style="clip-path:url(#SVGID_00000062164412118116744250000000704845523675136913_);fill:#E7E7E8;" d="M433.389,377.495
				v49.385v4.611h6.271c-2.908,1.462-5.937,2.847-9.074,4.146V433H288.429v1.48c-1.481-0.673-2.934-1.367-4.355-2.08h3.316V328.195
				h-1.059c2.908-1.461,5.935-2.845,9.073-4.145c6.275-2.6,12.991-4.865,20.067-6.749c14.153-3.766,29.751-6.002,46.164-6.326
				c16.413-0.324,32.087,1.294,46.378,4.499c7.145,1.602,13.944,3.6,20.317,5.95c3.186,1.175,6.267,2.439,9.229,3.784h-4.17V377.495
				z"/>
			<path style="clip-path:url(#SVGID_00000062164412118116744250000000704845523675136913_);fill:#E8E8E9;" d="M433.389,377.535
				v48.549v4.534h4.974c-2.858,1.437-5.835,2.797-8.92,4.075V433H298.764v4.273c-6.265-2.31-12.111-4.967-17.458-7.925h6.083
				v-98.067h-3.96c1.369-0.756,2.769-1.493,4.199-2.212c2.858-1.436,5.835-2.797,8.919-4.075c6.169-2.556,12.77-4.783,19.727-6.634
				c13.913-3.702,29.248-5.9,45.383-6.219c16.136-0.319,31.544,1.272,45.593,4.422c7.024,1.575,13.709,3.54,19.975,5.85
				c3.133,1.155,6.16,2.397,9.073,3.72h-2.909V377.535z"/>
			<path style="clip-path:url(#SVGID_00000062164412118116744250000000704845523675136913_);fill:#E9E9EA;" d="M433.389,377.575
				v47.713v4.455h3.675c-2.81,1.412-5.735,2.749-8.767,4.005V433H299.87v3.286c-6.157-2.271-11.903-4.882-17.158-7.789h4.677
				v-94.098h-6.535c20.546-12.452,49.111-20.466,80.826-21.093c15.857-0.313,31.001,1.25,44.809,4.346
				c6.903,1.548,13.473,3.479,19.629,5.749c3.078,1.136,6.054,2.356,8.916,3.656h-1.645V377.575z"/>
			<path style="clip-path:url(#SVGID_00000062164412118116744250000000704845523675136913_);fill:#EAEAEB;" d="M433.389,377.615
				v46.877v4.377h2.377c-2.761,1.388-5.635,2.701-8.612,3.936c-5.956,2.469-12.331,4.619-19.048,6.406V433H300.976v2.297
				c-6.049-2.23-11.694-4.796-16.857-7.652h3.27v-92.449h-5.096c20.186-12.233,48.251-20.107,79.411-20.723
				c15.58-0.308,30.458,1.228,44.023,4.27c6.782,1.521,13.236,3.418,19.286,5.649c3.024,1.115,5.948,2.314,8.761,3.592h-0.385
				V377.615z"/>
			<path style="clip-path:url(#SVGID_00000062164412118116744250000000704845523675136913_);fill:#EBEBEC;" d="M433.389,377.654
				v46.042v4.299h1.08c-2.711,1.362-5.534,2.652-8.459,3.864c-5.851,2.425-12.111,4.537-18.709,6.293V433h-86.276v6.856
				c-13.323-2.987-25.356-7.452-35.499-13.063h1.863v-90.802h-3.657c19.826-12.015,47.391-19.749,77.994-20.353
				c15.302-0.302,29.915,1.206,43.238,4.193c6.661,1.494,13.001,3.357,18.942,5.548c2.971,1.096,5.842,2.273,8.604,3.528
				c1.382,0.628,2.735,1.274,4.062,1.939h-3.184V377.654z"/>
			<path style="clip-path:url(#SVGID_00000062164412118116744250000000704845523675136913_);fill:#ECECED;" d="M433.389,377.694
				V422.9v2.162h3.691c-1.275,0.704-2.579,1.391-3.91,2.06c-2.661,1.338-5.433,2.604-8.305,3.794
				c-5.744,2.381-11.891,4.454-18.369,6.178V433h-84.71v5.767c-13.081-2.933-24.896-7.317-34.855-12.827h0.457v-89.152h-2.218
				c19.466-11.797,46.53-19.39,76.578-19.984c30.048-0.594,57.391,5.925,77.308,16.944h-5.668V377.694z"/>
			<path style="clip-path:url(#SVGID_00000062164412118116744250000000704845523675136913_);fill:#EDEDEE;" d="M433.389,377.734
				v44.369h5.99c-9.553,5.789-20.971,10.547-33.686,13.93V433h-83.144v4.677c-12.84-2.879-24.436-7.183-34.21-12.59
				c-2.444-1.353-4.773-2.773-6.98-4.259h6.03v-83.244h-0.779c19.106-11.579,45.669-19.032,75.162-19.615
				c29.492-0.582,56.33,5.815,75.879,16.63h-4.262V377.734z"/>
			<path style="clip-path:url(#SVGID_00000062164412118116744250000000704845523675136913_);fill:#EEEEEF;" d="M433.389,377.773
				v43.533h4.551c-9.373,5.681-20.575,10.35-33.051,13.669V433H323.31v3.586c-12.598-2.824-23.975-7.046-33.566-12.352
				c-2.398-1.326-4.684-2.721-6.849-4.178h4.493v-77.232h-6.018c2.106-1.542,4.335-3.025,6.678-4.445
				c18.746-11.36,44.81-18.673,73.746-19.245c28.938-0.572,55.269,5.706,74.449,16.317h-2.855V377.773z"/>
			<path style="clip-path:url(#SVGID_00000062164412118116744250000000704845523675136913_);fill:#EFEFF0;" d="M433.389,377.814
				v42.698h3.111c-18.387,11.143-43.949,18.314-72.33,18.875c-28.381,0.561-54.207-5.597-73.019-16.004
				c-2.351-1.301-4.593-2.668-6.717-4.098h2.955v-75.75h-4.451c2.065-1.512,4.251-2.967,6.55-4.359
				c18.386-11.143,43.949-18.315,72.331-18.875c28.381-0.561,54.207,5.597,73.02,16.004h-1.449V377.814z"/>
			<path style="clip-path:url(#SVGID_00000062164412118116744250000000704845523675136913_);fill:#F0F0F1;" d="M433.389,377.854
				v41.861h1.673c-18.026,10.925-43.089,17.957-70.914,18.506c-27.826,0.55-53.146-5.486-71.59-15.69
				c-2.306-1.276-4.503-2.617-6.585-4.019h1.416v-74.266h-2.884c2.025-1.482,4.168-2.908,6.422-4.274
				c18.026-10.924,43.089-17.956,70.914-18.506c27.825-0.549,53.146,5.487,71.59,15.691h-0.042V377.854z"/>
			<path style="clip-path:url(#SVGID_00000062164412118116744250000000704845523675136913_);fill:#F1F1F2;" d="M433.389,377.893
				v41.026h0.233c-17.666,10.706-42.228,17.598-69.498,18.137c-27.27,0.538-52.084-5.378-70.16-15.378
				c-4.519-2.5-8.616-5.256-12.226-8.229h5.65v-63.974h-6.914c3.489-3.114,7.475-6.029,11.892-8.706
				c17.666-10.707,42.228-17.598,69.498-18.136c27.271-0.539,52.085,5.377,70.16,15.377c2.259,1.25,4.413,2.564,6.454,3.937h-5.09
				V377.893z"/>
			<path style="clip-path:url(#SVGID_00000062164412118116744250000000704845523675136913_);fill:#F2F2F2;" d="M433.389,377.933
				v21.966v14.121h4.96c-1.944,1.423-4.002,2.793-6.165,4.103c-17.307,10.487-41.367,17.238-68.082,17.767
				c-26.714,0.528-51.023-5.268-68.73-15.063c-4.427-2.449-8.441-5.148-11.977-8.062h3.994v-62.672h-5.233
				c3.418-3.051,7.323-5.906,11.649-8.528c17.307-10.488,41.368-17.239,68.082-17.767c26.715-0.527,51.023,5.268,68.73,15.064
				c2.213,1.225,4.323,2.512,6.322,3.857h-3.551V377.933z"/>
			<path style="clip-path:url(#SVGID_00000062164412118116744250000000704845523675136913_);fill:#F3F3F3;" d="M433.389,377.973
				v21.508v13.828h3.393c-1.904,1.394-3.919,2.734-6.037,4.018c-16.946,10.271-40.508,16.881-66.666,17.397
				c-26.159,0.517-49.962-5.158-67.301-14.751c-4.335-2.398-8.266-5.041-11.728-7.894h2.339v-61.368h-3.551
				c3.347-2.987,7.17-5.783,11.407-8.351c16.946-10.27,40.507-16.88,66.666-17.397c26.158-0.517,49.962,5.159,67.301,14.751
				c2.168,1.199,4.234,2.46,6.191,3.776h-2.014V377.973z"/>
			<path style="clip-path:url(#SVGID_00000062164412118116744250000000704845523675136913_);fill:#F4F4F4;" d="M433.389,378.013
				v21.052v13.533h1.824c-1.863,1.363-3.835,2.676-5.908,3.933c-16.586,10.052-39.646,16.522-65.249,17.028
				c-25.604,0.506-48.901-5.049-65.872-14.438c-4.243-2.348-8.09-4.935-11.479-7.727h0.684V351.33h-1.871
				c3.276-2.923,7.018-5.66,11.165-8.173c16.586-10.052,39.647-16.522,65.249-17.027c25.604-0.506,48.901,5.048,65.872,14.437
				c4.242,2.347,8.09,4.934,11.479,7.726h-5.895V378.013z"/>
			<path style="clip-path:url(#SVGID_00000062164412118116744250000000704845523675136913_);fill:#F5F5F5;" d="M433.389,378.052
				v20.595v9.092h5.4c-3.205,2.859-6.866,5.537-10.923,7.996c-16.227,9.834-38.786,16.164-63.834,16.658
				c-25.047,0.494-47.84-4.94-64.442-14.125c-4.151-2.296-7.915-4.826-11.23-7.558c-1.657-1.366-3.203-2.782-4.628-4.243h3.657
				v-54.518H287.2c3.205-2.86,6.865-5.538,10.922-7.996c16.227-9.833,38.787-16.163,63.834-16.658
				c25.048-0.495,47.84,4.939,64.442,14.124c4.15,2.296,7.914,4.827,11.23,7.559h-4.239V378.052z"/>
			<path style="clip-path:url(#SVGID_00000062164412118116744250000000704845523675136913_);fill:#F6F6F6;" d="M433.389,378.092
				v20.139v8.889h3.718c-3.134,2.797-6.714,5.414-10.68,7.818c-15.866,9.615-37.926,15.805-62.418,16.289
				c-24.492,0.484-46.778-4.829-63.012-13.811c-8.117-4.49-14.721-9.898-19.331-15.957h5.723v-40.002h-6.513
				c4.367-6.236,10.752-11.9,18.685-16.708c15.867-9.615,37.926-15.805,62.418-16.289c24.491-0.484,46.778,4.83,63.013,13.811
				c4.059,2.245,7.738,4.72,10.98,7.391h-2.584V378.092z"/>
			<path style="clip-path:url(#SVGID_00000062164412118116744250000000704845523675136913_);fill:#F7F7F7;" d="M433.389,378.132
				v19.681v8.689h2.037c-3.063,2.733-6.561,5.292-10.438,7.641c-15.507,9.397-37.066,15.446-61.002,15.92
				c-23.936,0.473-45.718-4.72-61.583-13.498c-7.933-4.39-14.387-9.675-18.892-15.596h3.878v-39.094h-4.649
				c4.268-6.095,10.508-11.63,18.261-16.329c15.507-9.397,37.066-15.446,61.002-15.918c23.935-0.473,45.717,4.72,61.582,13.497
				c3.967,2.194,7.563,4.613,10.732,7.223h-0.928V378.132z"/>
			<path style="clip-path:url(#SVGID_00000062164412118116744250000000704845523675136913_);fill:#F8F8F8;" d="M433.389,378.171
				v19.225v8.487h0.355c-2.991,2.669-6.408,5.168-10.195,7.463c-15.147,9.18-36.205,15.088-59.586,15.55
				c-23.38,0.462-44.656-4.61-60.153-13.185c-7.749-4.287-14.053-9.449-18.453-15.232h2.032v-38.187h-2.786
				c4.169-5.954,10.264-11.361,17.837-15.951c15.146-9.179,36.205-15.087,59.586-15.549c23.381-0.462,44.656,4.61,60.153,13.185
				c3.874,2.143,7.388,4.506,10.482,7.055c1.548,1.275,2.99,2.596,4.321,3.961h-3.594V378.171z"/>
			<path style="clip-path:url(#SVGID_00000062164412118116744250000000704845523675136913_);fill:#F9F9F9;" d="M433.389,378.211
				v18.767h6.135c-4.07,5.812-10.02,11.091-17.414,15.571c-14.786,8.962-35.344,14.73-58.169,15.181
				c-22.825,0.451-43.595-4.501-58.725-12.871c-7.564-4.185-13.719-9.225-18.015-14.871h0.188v-37.278h-0.924
				c4.07-5.812,10.021-11.091,17.414-15.571c14.787-8.961,35.345-14.729,58.169-15.18c22.825-0.451,43.595,4.501,58.724,12.871
				c7.564,4.185,13.719,9.225,18.015,14.871h-5.397V378.211z"/>
			<path style="clip-path:url(#SVGID_00000062164412118116744250000000704845523675136913_);fill:#FAFAFA;" d="M433.389,378.251
				v18.311h4.271c-3.97,5.67-9.775,10.82-16.989,15.191c-14.427,8.743-34.484,14.371-56.754,14.811
				c-44.539,0.88-81.058-19.325-81.567-45.128c-0.51-25.803,35.183-47.433,79.721-48.313c22.268-0.44,42.533,4.391,57.294,12.558
				c7.381,4.083,13.386,9,17.577,14.509h-3.554V378.251z"/>
			<path style="clip-path:url(#SVGID_00000062164412118116744250000000704845523675136913_);fill:#FBFBFB;" d="M433.389,378.29
				v17.854h2.408c-3.871,5.528-9.531,10.551-16.564,14.813c-14.067,8.525-33.625,14.013-55.339,14.441
				c-43.427,0.858-79.035-18.842-79.532-44.001c-0.497-25.16,34.305-46.251,77.733-47.108c21.714-0.429,41.472,4.282,55.864,12.244
				c7.196,3.981,13.051,8.776,17.138,14.147h-1.708V378.29z"/>
			
				<ellipse transform="matrix(0.9998 -0.0197 0.0197 0.9998 -7.4304 7.2425)" style="clip-path:url(#SVGID_00000062164412118116744250000000704845523675136913_);fill:#FCFCFC;" cx="362.994" cy="379.844" rx="76.635" ry="44.397"/>
			<path style="clip-path:url(#SVGID_00000062164412118116744250000000704845523675136913_);fill:#FDFDFD;" d="M437.602,378.37
				c0.471,23.871-32.55,43.883-73.755,44.697c-41.205,0.814-74.99-17.878-75.461-41.75c-0.472-23.872,32.549-43.883,73.754-44.697
				C403.345,335.807,437.131,354.499,437.602,378.37z"/>
			<path style="clip-path:url(#SVGID_00000062164412118116744250000000704845523675136913_);fill:#FEFEFE;" d="M435.59,378.41
				c0.459,23.227-31.671,42.699-71.765,43.491c-40.094,0.792-72.968-17.395-73.427-40.624
				c-0.459-23.228,31.671-42.699,71.765-43.491C402.257,336.994,435.131,355.182,435.59,378.41z"/>
			<path style="clip-path:url(#SVGID_00000062164412118116744250000000704845523675136913_);fill:#FFFFFF;" d="M433.578,378.449
				c0.446,22.584-30.794,41.517-69.776,42.286c-38.982,0.771-70.945-16.913-71.391-39.497
				c-0.446-22.584,30.794-41.517,69.776-42.287C401.169,338.182,433.132,355.865,433.578,378.449z"/>
			<path style="clip-path:url(#SVGID_00000062164412118116744250000000704845523675136913_);fill:#FFFFFF;" d="M431.565,378.489
				c0.434,21.94-29.915,40.333-67.786,41.081c-37.872,0.748-68.923-16.432-69.357-38.372c-0.433-21.94,29.916-40.332,67.787-41.081
				C400.08,339.37,431.133,356.549,431.565,378.489z"/>
			<path style="clip-path:url(#SVGID_00000062164412118116744250000000704845523675136913_);fill:#FFFFFF;" d="M408.864,378.938
				c0.29,14.677-20.012,26.98-45.345,27.48c-25.333,0.5-46.105-10.991-46.396-25.668c-0.289-14.677,20.012-26.98,45.345-27.48
				C387.803,352.769,408.574,364.261,408.864,378.938z"/>
		</g>
	</g>
	<g>
		
			<radialGradient id="SVGID_00000077291291813710883400000005185840086058008731_" cx="207.1382" cy="298.1362" r="22.8115" gradientTransform="matrix(0.9207 -0.3904 0.3904 0.9207 4.0498 155.9951)" gradientUnits="userSpaceOnUse">
			<stop  offset="0" style="stop-color:#FFFFFF"/>
			<stop  offset="0.0667" style="stop-color:#FFFBDF"/>
			<stop  offset="0.8061" style="stop-color:#005745"/>
		</radialGradient>
		<polygon style="fill:url(#SVGID_00000077291291813710883400000005185840086058008731_);" points="345.186,369.082 
			312.779,382.823 301.571,356.391 333.979,342.651 		"/>
		
			<radialGradient id="SVGID_00000116207302663031271540000005342882352402873531_" cx="209.1099" cy="302.9072" r="34.8599" gradientTransform="matrix(0.9207 -0.3904 0.3904 0.9207 4.0498 155.9951)" gradientUnits="userSpaceOnUse">
			<stop  offset="0" style="stop-color:#FFFFFF"/>
			<stop  offset="0.4364" style="stop-color:#FFFFFE"/>
			<stop  offset="1" style="stop-color:#FFFBDF"/>
		</radialGradient>
		<polygon style="fill:url(#SVGID_00000116207302663031271540000005342882352402873531_);" points="344.997,369.013 
			312.904,382.621 301.803,356.443 333.898,342.835 		"/>
		
			<radialGradient id="SVGID_00000183221793644645255480000012293806362525168813_" cx="207.9404" cy="301.0576" r="30.088" gradientTransform="matrix(0.9207 -0.3904 0.3904 0.9207 4.0498 155.9951)" gradientUnits="userSpaceOnUse">
			<stop  offset="0" style="stop-color:#FFFFFF"/>
			<stop  offset="0.5697" style="stop-color:#E5AB21"/>
			<stop  offset="1" style="stop-color:#ED2024"/>
		</radialGradient>
		<polygon style="fill:url(#SVGID_00000183221793644645255480000012293806362525168813_);" points="342.991,368.272 
			313.766,380.663 303.81,357.184 333.035,344.793 		"/>
		
			<radialGradient id="SVGID_00000145059280115640635280000017674555483378094225_" cx="206.3037" cy="299.2061" r="41.8514" gradientTransform="matrix(0.9207 -0.3904 0.3904 0.9207 4.0498 155.9951)" gradientUnits="userSpaceOnUse">
			<stop  offset="0.0303" style="stop-color:#FFFFFF"/>
			<stop  offset="0.5697" style="stop-color:#E5AB21"/>
			<stop  offset="1" style="stop-color:#ED2024"/>
		</radialGradient>
		<polygon style="fill:url(#SVGID_00000145059280115640635280000017674555483378094225_);" points="338.322,357.262 
			333.035,344.793 303.81,357.184 306.218,362.863 		"/>
	</g>
	<g>
		<g>
			<defs>
				<path id="SVGID_00000168813688850329629550000008332638537955172023_" d="M429.322,389.92c0,5.6-30.617,10.143-68.385,10.143
					s-68.385-4.543-68.385-10.143c0-5.601,30.617-10.141,68.385-10.141S429.322,384.319,429.322,389.92z"/>
			</defs>
			<clipPath id="SVGID_00000083048079157516680170000006168438575707613602_">
				<use xlink:href="#SVGID_00000168813688850329629550000008332638537955172023_"  style="overflow:visible;"/>
			</clipPath>
			
				<rect x="292.553" y="379.779" style="clip-path:url(#SVGID_00000083048079157516680170000006168438575707613602_);fill:#FFFFFF;" width="136.77" height="20.283"/>
			
				<ellipse style="clip-path:url(#SVGID_00000083048079157516680170000006168438575707613602_);fill:#FFFFFF;" cx="360.937" cy="389.921" rx="63.233" ry="4.965"/>
			
				<ellipse style="clip-path:url(#SVGID_00000083048079157516680170000006168438575707613602_);fill:#FFFFFF;" cx="360.937" cy="389.921" rx="62.843" ry="4.935"/>
			
				<ellipse style="clip-path:url(#SVGID_00000083048079157516680170000006168438575707613602_);fill:#FFFFFF;" cx="360.937" cy="389.921" rx="62.453" ry="4.903"/>
			
				<ellipse style="clip-path:url(#SVGID_00000083048079157516680170000006168438575707613602_);fill:#FFFFFF;" cx="360.937" cy="389.921" rx="62.062" ry="4.873"/>
			
				<ellipse style="clip-path:url(#SVGID_00000083048079157516680170000006168438575707613602_);fill:#FFFFFF;" cx="360.937" cy="389.921" rx="61.672" ry="4.842"/>
			
				<ellipse style="clip-path:url(#SVGID_00000083048079157516680170000006168438575707613602_);fill:#FFFFFF;" cx="360.937" cy="389.921" rx="61.282" ry="4.812"/>
			<path style="clip-path:url(#SVGID_00000083048079157516680170000006168438575707613602_);fill:#FFFFFF;" d="M421.828,389.921
				c0,2.641-27.262,4.781-60.891,4.781c-33.629,0-60.892-2.141-60.892-4.781c0-2.641,27.262-4.781,60.892-4.781
				C394.566,385.14,421.828,387.28,421.828,389.921z"/>
			
				<ellipse style="clip-path:url(#SVGID_00000083048079157516680170000006168438575707613602_);fill:#FFFFFF;" cx="360.937" cy="389.921" rx="60.502" ry="4.75"/>
			
				<ellipse style="clip-path:url(#SVGID_00000083048079157516680170000006168438575707613602_);fill:#FFFFFF;" cx="360.937" cy="389.921" rx="60.111" ry="4.72"/>
			
				<ellipse style="clip-path:url(#SVGID_00000083048079157516680170000006168438575707613602_);fill:#FFFFFF;" cx="360.937" cy="389.921" rx="59.721" ry="4.689"/>
			
				<ellipse style="clip-path:url(#SVGID_00000083048079157516680170000006168438575707613602_);fill:#FFFFFF;" cx="360.937" cy="389.921" rx="59.331" ry="4.658"/>
			
				<ellipse style="clip-path:url(#SVGID_00000083048079157516680170000006168438575707613602_);fill:#FFFFFF;" cx="360.937" cy="389.921" rx="58.94" ry="4.628"/>
			
				<ellipse style="clip-path:url(#SVGID_00000083048079157516680170000006168438575707613602_);fill:#FEFEFE;" cx="360.937" cy="389.921" rx="58.55" ry="4.597"/>
			
				<ellipse style="clip-path:url(#SVGID_00000083048079157516680170000006168438575707613602_);fill:#FEFEFE;" cx="360.937" cy="389.921" rx="58.16" ry="4.566"/>
			
				<ellipse style="clip-path:url(#SVGID_00000083048079157516680170000006168438575707613602_);fill:#FEFEFE;" cx="360.937" cy="389.921" rx="57.769" ry="4.536"/>
			
				<ellipse style="clip-path:url(#SVGID_00000083048079157516680170000006168438575707613602_);fill:#FEFEFE;" cx="360.937" cy="389.921" rx="57.379" ry="4.505"/>
			
				<ellipse style="clip-path:url(#SVGID_00000083048079157516680170000006168438575707613602_);fill:#FEFEFE;" cx="360.937" cy="389.921" rx="56.989" ry="4.475"/>
			
				<ellipse style="clip-path:url(#SVGID_00000083048079157516680170000006168438575707613602_);fill:#FEFEFE;" cx="360.937" cy="389.921" rx="56.599" ry="4.444"/>
			
				<ellipse style="clip-path:url(#SVGID_00000083048079157516680170000006168438575707613602_);fill:#FDFEFE;" cx="360.937" cy="389.921" rx="56.208" ry="4.413"/>
			
				<ellipse style="clip-path:url(#SVGID_00000083048079157516680170000006168438575707613602_);fill:#FDFDFD;" cx="360.937" cy="389.921" rx="55.818" ry="4.383"/>
			
				<ellipse style="clip-path:url(#SVGID_00000083048079157516680170000006168438575707613602_);fill:#FDFDFD;" cx="360.937" cy="389.921" rx="55.428" ry="4.352"/>
			
				<ellipse style="clip-path:url(#SVGID_00000083048079157516680170000006168438575707613602_);fill:#FDFDFD;" cx="360.937" cy="389.921" rx="55.037" ry="4.321"/>
			
				<ellipse style="clip-path:url(#SVGID_00000083048079157516680170000006168438575707613602_);fill:#FDFDFD;" cx="360.937" cy="389.921" rx="54.647" ry="4.291"/>
			
				<ellipse style="clip-path:url(#SVGID_00000083048079157516680170000006168438575707613602_);fill:#FCFCFC;" cx="360.937" cy="389.921" rx="54.257" ry="4.26"/>
			
				<ellipse style="clip-path:url(#SVGID_00000083048079157516680170000006168438575707613602_);fill:#FCFCFC;" cx="360.937" cy="389.921" rx="53.866" ry="4.229"/>
			
				<ellipse style="clip-path:url(#SVGID_00000083048079157516680170000006168438575707613602_);fill:#FCFCFC;" cx="360.937" cy="389.921" rx="53.476" ry="4.199"/>
			
				<ellipse style="clip-path:url(#SVGID_00000083048079157516680170000006168438575707613602_);fill:#FBFBFC;" cx="360.937" cy="389.921" rx="53.086" ry="4.168"/>
			
				<ellipse style="clip-path:url(#SVGID_00000083048079157516680170000006168438575707613602_);fill:#FBFBFB;" cx="360.937" cy="389.921" rx="52.696" ry="4.138"/>
			
				<ellipse style="clip-path:url(#SVGID_00000083048079157516680170000006168438575707613602_);fill:#FBFBFB;" cx="360.937" cy="389.921" rx="52.305" ry="4.106"/>
			
				<ellipse style="clip-path:url(#SVGID_00000083048079157516680170000006168438575707613602_);fill:#FAFAFB;" cx="360.937" cy="389.921" rx="51.915" ry="4.076"/>
			
				<ellipse style="clip-path:url(#SVGID_00000083048079157516680170000006168438575707613602_);fill:#FAFAFA;" cx="360.937" cy="389.921" rx="51.525" ry="4.046"/>
			<path style="clip-path:url(#SVGID_00000083048079157516680170000006168438575707613602_);fill:#F9FAFA;" d="M412.071,389.921
				c0,2.218-22.894,4.015-51.134,4.015c-28.241,0-51.134-1.797-51.134-4.015s22.894-4.015,51.134-4.015
				C389.178,385.906,412.071,387.703,412.071,389.921z"/>
			
				<ellipse style="clip-path:url(#SVGID_00000083048079157516680170000006168438575707613602_);fill:#F9F9F9;" cx="360.937" cy="389.921" rx="50.744" ry="3.984"/>
			
				<ellipse style="clip-path:url(#SVGID_00000083048079157516680170000006168438575707613602_);fill:#F9F9F9;" cx="360.937" cy="389.921" rx="50.354" ry="3.953"/>
			<path style="clip-path:url(#SVGID_00000083048079157516680170000006168438575707613602_);fill:#F8F8F8;" d="M410.9,389.921
				c0,2.167-22.369,3.923-49.963,3.923c-27.594,0-49.964-1.756-49.964-3.923c0-2.167,22.37-3.923,49.964-3.923
				C388.531,385.998,410.9,387.754,410.9,389.921z"/>
			
				<ellipse style="clip-path:url(#SVGID_00000083048079157516680170000006168438575707613602_);fill:#F8F8F8;" cx="360.937" cy="389.921" rx="49.573" ry="3.893"/>
			
				<ellipse style="clip-path:url(#SVGID_00000083048079157516680170000006168438575707613602_);fill:#F7F7F8;" cx="360.937" cy="389.921" rx="49.183" ry="3.861"/>
			
				<ellipse style="clip-path:url(#SVGID_00000083048079157516680170000006168438575707613602_);fill:#F7F7F7;" cx="360.937" cy="389.921" rx="48.793" ry="3.831"/>
			
				<ellipse style="clip-path:url(#SVGID_00000083048079157516680170000006168438575707613602_);fill:#F6F6F6;" cx="360.937" cy="389.921" rx="48.402" ry="3.801"/>
			
				<ellipse style="clip-path:url(#SVGID_00000083048079157516680170000006168438575707613602_);fill:#F6F6F6;" cx="360.937" cy="389.921" rx="48.012" ry="3.77"/>
			
				<ellipse style="clip-path:url(#SVGID_00000083048079157516680170000006168438575707613602_);fill:#F5F5F5;" cx="360.937" cy="389.921" rx="47.622" ry="3.739"/>
			
				<ellipse style="clip-path:url(#SVGID_00000083048079157516680170000006168438575707613602_);fill:#F4F5F5;" cx="360.937" cy="389.921" rx="47.232" ry="3.708"/>
			
				<ellipse style="clip-path:url(#SVGID_00000083048079157516680170000006168438575707613602_);fill:#F4F4F4;" cx="360.937" cy="389.921" rx="46.841" ry="3.678"/>
			
				<ellipse style="clip-path:url(#SVGID_00000083048079157516680170000006168438575707613602_);fill:#F3F3F4;" cx="360.937" cy="389.921" rx="46.451" ry="3.647"/>
			
				<ellipse style="clip-path:url(#SVGID_00000083048079157516680170000006168438575707613602_);fill:#F2F3F3;" cx="360.937" cy="389.921" rx="46.061" ry="3.616"/>
			
				<ellipse style="clip-path:url(#SVGID_00000083048079157516680170000006168438575707613602_);fill:#F2F2F2;" cx="360.937" cy="389.921" rx="45.67" ry="3.586"/>
			
				<ellipse style="clip-path:url(#SVGID_00000083048079157516680170000006168438575707613602_);fill:#F1F1F2;" cx="360.937" cy="389.921" rx="45.28" ry="3.556"/>
			
				<ellipse style="clip-path:url(#SVGID_00000083048079157516680170000006168438575707613602_);fill:#F0F1F1;" cx="360.937" cy="389.921" rx="44.89" ry="3.524"/>
			
				<ellipse style="clip-path:url(#SVGID_00000083048079157516680170000006168438575707613602_);fill:#F0F0F0;" cx="360.937" cy="389.921" rx="44.5" ry="3.494"/>
			
				<ellipse style="clip-path:url(#SVGID_00000083048079157516680170000006168438575707613602_);fill:#EFEFEF;" cx="360.937" cy="389.921" rx="44.11" ry="3.463"/>
			
				<ellipse style="clip-path:url(#SVGID_00000083048079157516680170000006168438575707613602_);fill:#EEEEEF;" cx="360.937" cy="389.921" rx="43.719" ry="3.433"/>
			
				<ellipse style="clip-path:url(#SVGID_00000083048079157516680170000006168438575707613602_);fill:#EDEDEE;" cx="360.937" cy="389.921" rx="43.329" ry="3.402"/>
			
				<ellipse style="clip-path:url(#SVGID_00000083048079157516680170000006168438575707613602_);fill:#ECEDED;" cx="360.937" cy="389.921" rx="42.939" ry="3.371"/>
			
				<ellipse style="clip-path:url(#SVGID_00000083048079157516680170000006168438575707613602_);fill:#EBECEC;" cx="360.937" cy="389.921" rx="42.548" ry="3.341"/>
			
				<ellipse style="clip-path:url(#SVGID_00000083048079157516680170000006168438575707613602_);fill:#EBEBEB;" cx="360.937" cy="389.921" rx="42.158" ry="3.31"/>
			
				<ellipse style="clip-path:url(#SVGID_00000083048079157516680170000006168438575707613602_);fill:#EAEAEB;" cx="360.937" cy="389.921" rx="41.768" ry="3.279"/>
			
				<ellipse style="clip-path:url(#SVGID_00000083048079157516680170000006168438575707613602_);fill:#E9E9EA;" cx="360.937" cy="389.921" rx="41.377" ry="3.249"/>
			
				<ellipse style="clip-path:url(#SVGID_00000083048079157516680170000006168438575707613602_);fill:#E8E8E9;" cx="360.937" cy="389.921" rx="40.987" ry="3.218"/>
			
				<ellipse style="clip-path:url(#SVGID_00000083048079157516680170000006168438575707613602_);fill:#E7E7E8;" cx="360.937" cy="389.921" rx="40.597" ry="3.188"/>
			
				<ellipse style="clip-path:url(#SVGID_00000083048079157516680170000006168438575707613602_);fill:#E6E6E7;" cx="360.937" cy="389.921" rx="40.207" ry="3.157"/>
			
				<ellipse style="clip-path:url(#SVGID_00000083048079157516680170000006168438575707613602_);fill:#E5E5E6;" cx="360.937" cy="389.921" rx="39.816" ry="3.126"/>
			
				<ellipse style="clip-path:url(#SVGID_00000083048079157516680170000006168438575707613602_);fill:#E4E4E5;" cx="360.937" cy="389.921" rx="39.426" ry="3.096"/>
			
				<ellipse style="clip-path:url(#SVGID_00000083048079157516680170000006168438575707613602_);fill:#E3E3E4;" cx="360.937" cy="389.921" rx="39.036" ry="3.064"/>
			
				<ellipse style="clip-path:url(#SVGID_00000083048079157516680170000006168438575707613602_);fill:#E2E2E3;" cx="360.937" cy="389.921" rx="38.645" ry="3.034"/>
			
				<ellipse style="clip-path:url(#SVGID_00000083048079157516680170000006168438575707613602_);fill:#E0E1E2;" cx="360.937" cy="389.921" rx="38.255" ry="3.004"/>
			
				<ellipse style="clip-path:url(#SVGID_00000083048079157516680170000006168438575707613602_);fill:#DFE0E1;" cx="360.937" cy="389.921" rx="37.865" ry="2.973"/>
			
				<ellipse style="clip-path:url(#SVGID_00000083048079157516680170000006168438575707613602_);fill:#DEDFE0;" cx="360.937" cy="389.921" rx="37.475" ry="2.942"/>
			
				<ellipse style="clip-path:url(#SVGID_00000083048079157516680170000006168438575707613602_);fill:#DDDEDF;" cx="360.937" cy="389.921" rx="37.085" ry="2.912"/>
			
				<ellipse style="clip-path:url(#SVGID_00000083048079157516680170000006168438575707613602_);fill:#DCDCDD;" cx="360.937" cy="389.921" rx="36.694" ry="2.881"/>
			
				<ellipse style="clip-path:url(#SVGID_00000083048079157516680170000006168438575707613602_);fill:#DBDBDC;" cx="360.937" cy="389.921" rx="36.304" ry="2.851"/>
			
				<ellipse style="clip-path:url(#SVGID_00000083048079157516680170000006168438575707613602_);fill:#D9DADB;" cx="360.937" cy="389.921" rx="35.914" ry="2.819"/>
			
				<ellipse style="clip-path:url(#SVGID_00000083048079157516680170000006168438575707613602_);fill:#D8D9DA;" cx="360.937" cy="389.921" rx="35.523" ry="2.789"/>
			
				<ellipse style="clip-path:url(#SVGID_00000083048079157516680170000006168438575707613602_);fill:#D7D7D8;" cx="360.937" cy="389.921" rx="35.133" ry="2.759"/>
			
				<ellipse style="clip-path:url(#SVGID_00000083048079157516680170000006168438575707613602_);fill:#D5D6D7;" cx="360.937" cy="389.921" rx="34.743" ry="2.727"/>
			
				<ellipse style="clip-path:url(#SVGID_00000083048079157516680170000006168438575707613602_);fill:#D4D5D6;" cx="360.937" cy="389.921" rx="34.352" ry="2.697"/>
			
				<ellipse style="clip-path:url(#SVGID_00000083048079157516680170000006168438575707613602_);fill:#D3D3D5;" cx="360.937" cy="389.921" rx="33.962" ry="2.667"/>
			
				<ellipse style="clip-path:url(#SVGID_00000083048079157516680170000006168438575707613602_);fill:#D1D2D3;" cx="360.937" cy="389.921" rx="33.572" ry="2.636"/>
			
				<ellipse style="clip-path:url(#SVGID_00000083048079157516680170000006168438575707613602_);fill:#D0D1D2;" cx="360.937" cy="389.921" rx="33.182" ry="2.605"/>
			
				<ellipse style="clip-path:url(#SVGID_00000083048079157516680170000006168438575707613602_);fill:#CECFD0;" cx="360.937" cy="389.921" rx="32.791" ry="2.574"/>
			
				<ellipse style="clip-path:url(#SVGID_00000083048079157516680170000006168438575707613602_);fill:#CDCECF;" cx="360.937" cy="389.921" rx="32.401" ry="2.544"/>
			
				<ellipse style="clip-path:url(#SVGID_00000083048079157516680170000006168438575707613602_);fill:#CBCCCE;" cx="360.937" cy="389.921" rx="32.011" ry="2.514"/>
			
				<ellipse style="clip-path:url(#SVGID_00000083048079157516680170000006168438575707613602_);fill:#CACBCC;" cx="360.937" cy="389.921" rx="31.621" ry="2.482"/>
			<path style="clip-path:url(#SVGID_00000083048079157516680170000006168438575707613602_);fill:#C8C9CB;" d="M392.167,389.921
				c0,1.355-13.982,2.452-31.23,2.452c-17.248,0-31.23-1.098-31.23-2.452c0-1.354,13.982-2.452,31.23-2.452
				C378.185,387.469,392.167,388.566,392.167,389.921z"/>
			
				<ellipse style="clip-path:url(#SVGID_00000083048079157516680170000006168438575707613602_);fill:#C7C8C9;" cx="360.937" cy="389.921" rx="30.84" ry="2.422"/>
			
				<ellipse style="clip-path:url(#SVGID_00000083048079157516680170000006168438575707613602_);fill:#C5C6C8;" cx="360.937" cy="389.921" rx="30.45" ry="2.391"/>
			<path style="clip-path:url(#SVGID_00000083048079157516680170000006168438575707613602_);fill:#C3C4C6;" d="M390.996,389.921
				c0,1.304-13.458,2.36-30.059,2.36c-16.601,0-30.059-1.057-30.059-2.36c0-1.304,13.458-2.36,30.059-2.36
				C377.538,387.561,390.996,388.617,390.996,389.921z"/>
			<path style="clip-path:url(#SVGID_00000083048079157516680170000006168438575707613602_);fill:#C2C3C4;" d="M390.606,389.921
				c0,1.286-13.284,2.329-29.669,2.329c-16.386,0-29.669-1.043-29.669-2.329s13.283-2.329,29.669-2.329
				C377.322,387.592,390.606,388.635,390.606,389.921z"/>
			
				<ellipse style="clip-path:url(#SVGID_00000083048079157516680170000006168438575707613602_);fill:#C0C1C3;" cx="360.937" cy="389.921" rx="29.279" ry="2.299"/>
			<path style="clip-path:url(#SVGID_00000083048079157516680170000006168438575707613602_);fill:#BEBFC1;" d="M389.825,389.921
				c0,1.253-12.934,2.269-28.888,2.269c-15.955,0-28.889-1.016-28.889-2.269s12.934-2.269,28.889-2.269
				C376.892,387.652,389.825,388.668,389.825,389.921z"/>
			<path style="clip-path:url(#SVGID_00000083048079157516680170000006168438575707613602_);fill:#BDBEBF;" d="M389.435,389.921
				c0,1.235-12.76,2.237-28.498,2.237c-15.739,0-28.498-1.002-28.498-2.237c0-1.235,12.759-2.237,28.498-2.237
				C376.676,387.684,389.435,388.686,389.435,389.921z"/>
			
				<ellipse style="clip-path:url(#SVGID_00000083048079157516680170000006168438575707613602_);fill:#BBBCBE;" cx="360.937" cy="389.921" rx="28.108" ry="2.207"/>
			<path style="clip-path:url(#SVGID_00000083048079157516680170000006168438575707613602_);fill:#B9BABC;" d="M388.654,389.921
				c0,1.202-12.409,2.177-27.717,2.177c-15.308,0-27.718-0.975-27.718-2.177c0-1.202,12.41-2.177,27.718-2.177
				C376.245,387.744,388.654,388.719,388.654,389.921z"/>
			<path style="clip-path:url(#SVGID_00000083048079157516680170000006168438575707613602_);fill:#B7B8BA;" d="M388.265,389.921
				c0,1.185-12.235,2.146-27.328,2.146c-15.092,0-27.327-0.961-27.327-2.146s12.235-2.145,27.327-2.145
				C376.029,387.775,388.265,388.736,388.265,389.921z"/>
			
				<ellipse style="clip-path:url(#SVGID_00000083048079157516680170000006168438575707613602_);fill:#B5B7B9;" cx="360.937" cy="389.921" rx="26.937" ry="2.115"/>
			<path style="clip-path:url(#SVGID_00000083048079157516680170000006168438575707613602_);fill:#B3B5B7;" d="M387.483,389.921
				c0,1.151-11.885,2.084-26.546,2.084c-14.661,0-26.547-0.933-26.547-2.084s11.886-2.084,26.547-2.084
				C375.599,387.837,387.483,388.77,387.483,389.921z"/>
			<path style="clip-path:url(#SVGID_00000083048079157516680170000006168438575707613602_);fill:#B1B3B5;" d="M387.094,389.921
				c0,1.134-11.711,2.054-26.157,2.054c-14.446,0-26.156-0.92-26.156-2.054c0-1.134,11.71-2.054,26.156-2.054
				C375.383,387.867,387.094,388.787,387.094,389.921z"/>
			
				<ellipse style="clip-path:url(#SVGID_00000083048079157516680170000006168438575707613602_);fill:#B0B1B3;" cx="360.937" cy="389.921" rx="25.766" ry="2.023"/>
			<path style="clip-path:url(#SVGID_00000083048079157516680170000006168438575707613602_);fill:#AEAFB1;" d="M386.313,389.921
				c0,1.101-11.36,1.992-25.375,1.992c-14.015,0-25.376-0.892-25.376-1.992c0-1.101,11.361-1.992,25.376-1.992
				C374.952,387.929,386.313,388.82,386.313,389.921z"/>
			
				<ellipse style="clip-path:url(#SVGID_00000083048079157516680170000006168438575707613602_);fill:#ACADAF;" cx="360.937" cy="389.921" rx="24.986" ry="1.962"/>
			
				<ellipse style="clip-path:url(#SVGID_00000083048079157516680170000006168438575707613602_);fill:#AAABAD;" cx="360.937" cy="389.921" rx="24.595" ry="1.931"/>
			<path style="clip-path:url(#SVGID_00000083048079157516680170000006168438575707613602_);fill:#A7A9AB;" d="M385.142,389.921
				c0,1.05-10.837,1.9-24.205,1.9c-13.368,0-24.205-0.851-24.205-1.9s10.837-1.9,24.205-1.9
				C374.305,388.021,385.142,388.871,385.142,389.921z"/>
			
				<ellipse style="clip-path:url(#SVGID_00000083048079157516680170000006168438575707613602_);fill:#A5A7A9;" cx="360.937" cy="389.921" rx="23.815" ry="1.87"/>
			
				<ellipse style="clip-path:url(#SVGID_00000083048079157516680170000006168438575707613602_);fill:#A3A5A7;" cx="360.937" cy="389.921" rx="23.424" ry="1.839"/>
			<path style="clip-path:url(#SVGID_00000083048079157516680170000006168438575707613602_);fill:#A1A3A5;" d="M383.972,389.921
				c0,0.999-10.313,1.809-23.035,1.809c-12.722,0-23.034-0.81-23.034-1.809c0-0.999,10.313-1.809,23.034-1.809
				C373.658,388.112,383.972,388.922,383.972,389.921z"/>
			
				<ellipse style="clip-path:url(#SVGID_00000083048079157516680170000006168438575707613602_);fill:#9FA1A3;" cx="360.937" cy="389.921" rx="22.644" ry="1.778"/>
			
				<ellipse style="clip-path:url(#SVGID_00000083048079157516680170000006168438575707613602_);fill:#9D9FA1;" cx="360.937" cy="389.921" rx="22.253" ry="1.747"/>
			<path style="clip-path:url(#SVGID_00000083048079157516680170000006168438575707613602_);fill:#9B9C9F;" d="M382.801,389.921
				c0,0.948-9.789,1.717-21.864,1.717c-12.075,0-21.863-0.769-21.863-1.717c0-0.948,9.789-1.717,21.863-1.717
				C373.012,388.204,382.801,388.973,382.801,389.921z"/>
			
				<ellipse style="clip-path:url(#SVGID_00000083048079157516680170000006168438575707613602_);fill:#989A9D;" cx="360.937" cy="389.921" rx="21.473" ry="1.685"/>
			<path style="clip-path:url(#SVGID_00000083048079157516680170000006168438575707613602_);fill:#96989B;" d="M382.02,389.921
				c0,0.914-9.438,1.655-21.082,1.655c-11.644,0-21.083-0.741-21.083-1.655s9.439-1.655,21.083-1.655
				C372.581,388.266,382.02,389.007,382.02,389.921z"/>
			<path style="clip-path:url(#SVGID_00000083048079157516680170000006168438575707613602_);fill:#949698;" d="M381.63,389.921
				c0,0.898-9.265,1.625-20.693,1.625c-11.428,0-20.692-0.727-20.692-1.625c0-0.897,9.264-1.625,20.692-1.625
				C372.365,388.296,381.63,389.023,381.63,389.921z"/>
			<path style="clip-path:url(#SVGID_00000083048079157516680170000006168438575707613602_);fill:#919396;" d="M381.239,389.921
				c0,0.88-9.09,1.594-20.302,1.594c-11.212,0-20.302-0.714-20.302-1.594s9.09-1.594,20.302-1.594
				C372.149,388.327,381.239,389.041,381.239,389.921z"/>
			<path style="clip-path:url(#SVGID_00000083048079157516680170000006168438575707613602_);fill:#8F9194;" d="M380.849,389.921
				c0,0.863-8.915,1.564-19.912,1.564c-10.997,0-19.912-0.7-19.912-1.564c0-0.863,8.915-1.563,19.912-1.563
				C371.934,388.357,380.849,389.058,380.849,389.921z"/>
			<path style="clip-path:url(#SVGID_00000083048079157516680170000006168438575707613602_);fill:#8F9194;" d="M380.459,389.921
				c0,0.847-8.74,1.533-19.522,1.533c-10.782,0-19.522-0.686-19.522-1.533c0-0.847,8.74-1.533,19.522-1.533
				C371.719,388.388,380.459,389.074,380.459,389.921z"/>
			<path style="clip-path:url(#SVGID_00000083048079157516680170000006168438575707613602_);fill:#8E9093;" d="M380.29,389.921
				c0,0.839-8.664,1.52-19.353,1.52c-10.689,0-19.354-0.681-19.354-1.52s8.665-1.52,19.354-1.52
				C371.626,388.401,380.29,389.082,380.29,389.921z"/>
			
				<ellipse style="clip-path:url(#SVGID_00000083048079157516680170000006168438575707613602_);fill:#8D8F92;" cx="360.937" cy="389.921" rx="19.185" ry="1.506"/>
			<path style="clip-path:url(#SVGID_00000083048079157516680170000006168438575707613602_);fill:#8C8E91;" d="M379.954,389.921
				c0,0.824-8.515,1.493-19.017,1.493c-10.503,0-19.017-0.669-19.017-1.493c0-0.824,8.514-1.493,19.017-1.493
				C371.439,388.428,379.954,389.097,379.954,389.921z"/>
			<path style="clip-path:url(#SVGID_00000083048079157516680170000006168438575707613602_);fill:#8B8C8F;" d="M379.785,389.921
				c0,0.817-8.439,1.48-18.848,1.48c-10.41,0-18.849-0.662-18.849-1.48c0-0.817,8.439-1.479,18.849-1.479
				C371.347,388.441,379.785,389.104,379.785,389.921z"/>
			
				<ellipse style="clip-path:url(#SVGID_00000083048079157516680170000006168438575707613602_);fill:#8A8B8E;" cx="360.937" cy="389.921" rx="18.68" ry="1.467"/>
			<path style="clip-path:url(#SVGID_00000083048079157516680170000006168438575707613602_);fill:#898A8D;" d="M379.449,389.921
				c0,0.803-8.288,1.453-18.512,1.453c-10.224,0-18.512-0.65-18.512-1.453s8.288-1.453,18.512-1.453
				C371.161,388.468,379.449,389.118,379.449,389.921z"/>
			<path style="clip-path:url(#SVGID_00000083048079157516680170000006168438575707613602_);fill:#88898C;" d="M379.28,389.921
				c0,0.796-8.212,1.44-18.343,1.44c-10.131,0-18.344-0.645-18.344-1.44s8.213-1.44,18.344-1.44
				C371.068,388.48,379.28,389.125,379.28,389.921z"/>
			
				<ellipse style="clip-path:url(#SVGID_00000083048079157516680170000006168438575707613602_);fill:#86888B;" cx="360.937" cy="389.921" rx="18.175" ry="1.427"/>
			<path style="clip-path:url(#SVGID_00000083048079157516680170000006168438575707613602_);fill:#85878A;" d="M378.944,389.921
				c0,0.781-8.063,1.414-18.007,1.414c-9.945,0-18.007-0.633-18.007-1.414c0-0.781,8.062-1.414,18.007-1.414
				C370.882,388.507,378.944,389.14,378.944,389.921z"/>
			<path style="clip-path:url(#SVGID_00000083048079157516680170000006168438575707613602_);fill:#848689;" d="M378.775,389.921
				c0,0.773-7.986,1.4-17.838,1.4c-9.852,0-17.839-0.627-17.839-1.4c0-0.773,7.987-1.4,17.839-1.4
				C370.789,388.521,378.775,389.148,378.775,389.921z"/>
			
				<ellipse style="clip-path:url(#SVGID_00000083048079157516680170000006168438575707613602_);fill:#838587;" cx="360.937" cy="389.921" rx="17.67" ry="1.388"/>
			<path style="clip-path:url(#SVGID_00000083048079157516680170000006168438575707613602_);fill:#828486;" d="M378.439,389.921
				c0,0.759-7.836,1.374-17.502,1.374c-9.666,0-17.502-0.615-17.502-1.374c0-0.759,7.836-1.374,17.502-1.374
				C370.603,388.547,378.439,389.162,378.439,389.921z"/>
			<path style="clip-path:url(#SVGID_00000083048079157516680170000006168438575707613602_);fill:#818285;" d="M378.27,389.921
				c0,0.752-7.76,1.361-17.333,1.361c-9.573,0-17.334-0.609-17.334-1.361c0-0.752,7.761-1.361,17.334-1.361
				C370.511,388.56,378.27,389.169,378.27,389.921z"/>
			
				<ellipse style="clip-path:url(#SVGID_00000083048079157516680170000006168438575707613602_);fill:#808184;" cx="360.937" cy="389.921" rx="17.166" ry="1.348"/>
			
				<ellipse style="clip-path:url(#SVGID_00000083048079157516680170000006168438575707613602_);fill:#7F8083;" cx="360.937" cy="389.921" rx="16.998" ry="1.335"/>
			<path style="clip-path:url(#SVGID_00000083048079157516680170000006168438575707613602_);fill:#7E7F82;" d="M377.766,389.921
				c0,0.73-7.534,1.321-16.829,1.321c-9.294,0-16.829-0.592-16.829-1.321c0-0.729,7.535-1.321,16.829-1.321
				C370.231,388.6,377.766,389.191,377.766,389.921z"/>
			
				<ellipse style="clip-path:url(#SVGID_00000083048079157516680170000006168438575707613602_);fill:#7D7E81;" cx="360.937" cy="389.921" rx="16.661" ry="1.309"/>
			
				<ellipse style="clip-path:url(#SVGID_00000083048079157516680170000006168438575707613602_);fill:#7C7D7F;" cx="360.937" cy="389.921" rx="16.493" ry="1.295"/>
			<path style="clip-path:url(#SVGID_00000083048079157516680170000006168438575707613602_);fill:#7B7C7E;" d="M377.261,389.921
				c0,0.708-7.309,1.281-16.324,1.281c-9.016,0-16.324-0.573-16.324-1.281c0-0.708,7.309-1.281,16.324-1.281
				C369.952,388.64,377.261,389.213,377.261,389.921z"/>
			
				<ellipse style="clip-path:url(#SVGID_00000083048079157516680170000006168438575707613602_);fill:#7A7B7D;" cx="360.937" cy="389.921" rx="16.156" ry="1.269"/>
			
				<ellipse style="clip-path:url(#SVGID_00000083048079157516680170000006168438575707613602_);fill:#797A7C;" cx="360.937" cy="389.921" rx="15.988" ry="1.255"/>
			<path style="clip-path:url(#SVGID_00000083048079157516680170000006168438575707613602_);fill:#78787B;" d="M376.756,389.921
				c0,0.686-7.082,1.242-15.819,1.242c-8.737,0-15.819-0.557-15.819-1.242c0-0.685,7.082-1.242,15.819-1.242
				C369.674,388.679,376.756,389.235,376.756,389.921z"/>
			
				<ellipse style="clip-path:url(#SVGID_00000083048079157516680170000006168438575707613602_);fill:#77777A;" cx="360.937" cy="389.921" rx="15.651" ry="1.229"/>
			
				<ellipse style="clip-path:url(#SVGID_00000083048079157516680170000006168438575707613602_);fill:#767679;" cx="360.937" cy="389.921" rx="15.483" ry="1.216"/>
			<path style="clip-path:url(#SVGID_00000083048079157516680170000006168438575707613602_);fill:#757578;" d="M376.251,389.921
				c0,0.664-6.857,1.202-15.314,1.202c-8.458,0-15.314-0.538-15.314-1.202s6.856-1.202,15.314-1.202
				C369.395,388.719,376.251,389.257,376.251,389.921z"/>
			
				<ellipse style="clip-path:url(#SVGID_00000083048079157516680170000006168438575707613602_);fill:#747477;" cx="360.937" cy="389.921" rx="15.146" ry="1.189"/>
			
				<ellipse style="clip-path:url(#SVGID_00000083048079157516680170000006168438575707613602_);fill:#737375;" cx="360.937" cy="389.921" rx="14.978" ry="1.176"/>
			<path style="clip-path:url(#SVGID_00000083048079157516680170000006168438575707613602_);fill:#717274;" d="M375.746,389.921
				c0,0.643-6.63,1.163-14.809,1.163c-8.179,0-14.81-0.521-14.81-1.163c0-0.643,6.63-1.163,14.81-1.163
				C369.116,388.758,375.746,389.278,375.746,389.921z"/>
			
				<ellipse style="clip-path:url(#SVGID_00000083048079157516680170000006168438575707613602_);fill:#707173;" cx="360.937" cy="389.921" rx="14.641" ry="1.149"/>
			
				<ellipse style="clip-path:url(#SVGID_00000083048079157516680170000006168438575707613602_);fill:#6F7072;" cx="360.937" cy="389.921" rx="14.473" ry="1.137"/>
			<path style="clip-path:url(#SVGID_00000083048079157516680170000006168438575707613602_);fill:#6E6F71;" d="M375.241,389.921
				c0,0.62-6.404,1.123-14.304,1.123c-7.9,0-14.305-0.503-14.305-1.123s6.404-1.123,14.305-1.123
				C368.837,388.798,375.241,389.301,375.241,389.921z"/>
			<path style="clip-path:url(#SVGID_00000083048079157516680170000006168438575707613602_);fill:#6D6E70;" d="M375.073,389.921
				c0,0.613-6.329,1.11-14.136,1.11c-7.807,0-14.136-0.497-14.136-1.11c0-0.613,6.329-1.11,14.136-1.11
				C368.744,388.811,375.073,389.308,375.073,389.921z"/>
			
				<ellipse style="clip-path:url(#SVGID_00000083048079157516680170000006168438575707613602_);fill:#6C6C6F;" cx="360.937" cy="389.921" rx="13.968" ry="1.097"/>
			<path style="clip-path:url(#SVGID_00000083048079157516680170000006168438575707613602_);fill:#6B6B6E;" d="M374.736,389.921
				c0,0.599-6.178,1.084-13.799,1.084c-7.622,0-13.8-0.485-13.8-1.084s6.178-1.084,13.8-1.084
				C368.559,388.837,374.736,389.322,374.736,389.921z"/>
			
				<ellipse style="clip-path:url(#SVGID_00000083048079157516680170000006168438575707613602_);fill:#6A6A6D;" cx="360.937" cy="389.921" rx="13.631" ry="1.07"/>
			
				<ellipse style="clip-path:url(#SVGID_00000083048079157516680170000006168438575707613602_);fill:#69696C;" cx="360.937" cy="389.921" rx="13.463" ry="1.057"/>
			<path style="clip-path:url(#SVGID_00000083048079157516680170000006168438575707613602_);fill:#68686A;" d="M374.232,389.921
				c0,0.576-5.953,1.044-13.295,1.044c-7.343,0-13.295-0.468-13.295-1.044s5.952-1.044,13.295-1.044
				C368.279,388.877,374.232,389.345,374.232,389.921z"/>
			
				<ellipse style="clip-path:url(#SVGID_00000083048079157516680170000006168438575707613602_);fill:#676769;" cx="360.937" cy="389.921" rx="13.127" ry="1.03"/>
			
				<ellipse style="clip-path:url(#SVGID_00000083048079157516680170000006168438575707613602_);fill:#666668;" cx="360.937" cy="389.921" rx="12.959" ry="1.018"/>
			<path style="clip-path:url(#SVGID_00000083048079157516680170000006168438575707613602_);fill:#656567;" d="M373.727,389.921
				c0,0.555-5.726,1.004-12.79,1.004c-7.064,0-12.79-0.449-12.79-1.004c0-0.555,5.726-1.004,12.79-1.004
				C368.001,388.917,373.727,389.366,373.727,389.921z"/>
			
				<ellipse style="clip-path:url(#SVGID_00000083048079157516680170000006168438575707613602_);fill:#646466;" cx="360.937" cy="389.921" rx="12.622" ry="0.991"/>
			
				<ellipse style="clip-path:url(#SVGID_00000083048079157516680170000006168438575707613602_);fill:#636365;" cx="360.937" cy="389.921" rx="12.454" ry="0.977"/>
			<path style="clip-path:url(#SVGID_00000083048079157516680170000006168438575707613602_);fill:#626264;" d="M373.223,389.921
				c0,0.533-5.501,0.965-12.286,0.965c-6.785,0-12.285-0.432-12.285-0.965s5.5-0.965,12.285-0.965
				C367.722,388.956,373.223,389.388,373.223,389.921z"/>
			
				<ellipse style="clip-path:url(#SVGID_00000083048079157516680170000006168438575707613602_);fill:#616163;" cx="360.937" cy="389.921" rx="12.117" ry="0.951"/>
			
				<ellipse style="clip-path:url(#SVGID_00000083048079157516680170000006168438575707613602_);fill:#606062;" cx="360.937" cy="389.921" rx="11.949" ry="0.938"/>
			<path style="clip-path:url(#SVGID_00000083048079157516680170000006168438575707613602_);fill:#5F5F61;" d="M372.718,389.921
				c0,0.511-5.274,0.925-11.781,0.925c-6.506,0-11.78-0.414-11.78-0.925c0-0.511,5.275-0.925,11.78-0.925
				C367.443,388.996,372.718,389.41,372.718,389.921z"/>
			
				<ellipse style="clip-path:url(#SVGID_00000083048079157516680170000006168438575707613602_);fill:#5E5E60;" cx="360.937" cy="389.921" rx="11.612" ry="0.912"/>
			
				<ellipse style="clip-path:url(#SVGID_00000083048079157516680170000006168438575707613602_);fill:#5D5C5F;" cx="360.937" cy="389.921" rx="11.444" ry="0.898"/>
			<path style="clip-path:url(#SVGID_00000083048079157516680170000006168438575707613602_);fill:#5C5B5D;" d="M372.213,389.921
				c0,0.489-5.049,0.886-11.276,0.886c-6.227,0-11.275-0.396-11.275-0.886c0-0.489,5.048-0.886,11.275-0.886
				C367.164,389.035,372.213,389.432,372.213,389.921z"/>
			
				<ellipse style="clip-path:url(#SVGID_00000083048079157516680170000006168438575707613602_);fill:#5B5A5C;" cx="360.937" cy="389.921" rx="11.107" ry="0.872"/>
			
				<ellipse style="clip-path:url(#SVGID_00000083048079157516680170000006168438575707613602_);fill:#5A595B;" cx="360.937" cy="389.921" rx="10.939" ry="0.858"/>
			<path style="clip-path:url(#SVGID_00000083048079157516680170000006168438575707613602_);fill:#59585A;" d="M371.708,389.921
				c0,0.467-4.822,0.846-10.771,0.846c-5.948,0-10.771-0.379-10.771-0.846s4.822-0.846,10.771-0.846
				C366.886,389.075,371.708,389.454,371.708,389.921z"/>
			
				<ellipse style="clip-path:url(#SVGID_00000083048079157516680170000006168438575707613602_);fill:#585759;" cx="360.937" cy="389.921" rx="10.602" ry="0.832"/>
			
				<ellipse style="clip-path:url(#SVGID_00000083048079157516680170000006168438575707613602_);fill:#575658;" cx="360.937" cy="389.921" rx="10.434" ry="0.819"/>
			<path style="clip-path:url(#SVGID_00000083048079157516680170000006168438575707613602_);fill:#565557;" d="M371.203,389.921
				c0,0.445-4.597,0.806-10.266,0.806c-5.669,0-10.266-0.36-10.266-0.806c0-0.445,4.596-0.806,10.266-0.806
				C366.606,389.115,371.203,389.476,371.203,389.921z"/>
			<path style="clip-path:url(#SVGID_00000083048079157516680170000006168438575707613602_);fill:#555456;" d="M371.034,389.921
				c0,0.438-4.52,0.793-10.097,0.793c-5.577,0-10.098-0.355-10.098-0.793s4.521-0.793,10.098-0.793
				C366.514,389.128,371.034,389.483,371.034,389.921z"/>
			
				<ellipse style="clip-path:url(#SVGID_00000083048079157516680170000006168438575707613602_);fill:#545355;" cx="360.937" cy="389.921" rx="9.929" ry="0.779"/>
			<path style="clip-path:url(#SVGID_00000083048079157516680170000006168438575707613602_);fill:#535254;" d="M370.698,389.921
				c0,0.423-4.37,0.767-9.761,0.767c-5.391,0-9.761-0.344-9.761-0.767c0-0.423,4.37-0.767,9.761-0.767
				C366.328,389.154,370.698,389.498,370.698,389.921z"/>
			<path style="clip-path:url(#SVGID_00000083048079157516680170000006168438575707613602_);fill:#525153;" d="M370.529,389.921
				c0,0.416-4.295,0.753-9.592,0.753c-5.298,0-9.593-0.337-9.593-0.753c0-0.416,4.295-0.753,9.593-0.753
				C366.234,389.168,370.529,389.505,370.529,389.921z"/>
			
				<ellipse style="clip-path:url(#SVGID_00000083048079157516680170000006168438575707613602_);fill:#515052;" cx="360.937" cy="389.921" rx="9.424" ry="0.74"/>
			<path style="clip-path:url(#SVGID_00000083048079157516680170000006168438575707613602_);fill:#504F51;" d="M370.193,389.921
				c0,0.401-4.145,0.727-9.256,0.727c-5.112,0-9.256-0.325-9.256-0.727s4.144-0.727,9.256-0.727
				C366.049,389.194,370.193,389.52,370.193,389.921z"/>
			<path style="clip-path:url(#SVGID_00000083048079157516680170000006168438575707613602_);fill:#504E50;" d="M370.024,389.921
				c0,0.395-4.068,0.714-9.087,0.714c-5.019,0-9.088-0.319-9.088-0.714s4.069-0.714,9.088-0.714
				C365.956,389.207,370.024,389.526,370.024,389.921z"/>
			
				<ellipse style="clip-path:url(#SVGID_00000083048079157516680170000006168438575707613602_);fill:#4F4D4F;" cx="360.937" cy="389.921" rx="8.919" ry="0.7"/>
			<path style="clip-path:url(#SVGID_00000083048079157516680170000006168438575707613602_);fill:#4E4C4E;" d="M369.688,389.921
				c0,0.38-3.918,0.688-8.751,0.688c-4.833,0-8.751-0.308-8.751-0.688s3.918-0.688,8.751-0.688
				C365.77,389.233,369.688,389.541,369.688,389.921z"/>
			<path style="clip-path:url(#SVGID_00000083048079157516680170000006168438575707613602_);fill:#4D4B4D;" d="M369.52,389.921
				c0,0.372-3.843,0.674-8.582,0.674c-4.74,0-8.583-0.302-8.583-0.674s3.843-0.674,8.583-0.674
				C365.677,389.247,369.52,389.549,369.52,389.921z"/>
			
				<ellipse style="clip-path:url(#SVGID_00000083048079157516680170000006168438575707613602_);fill:#4C4A4C;" cx="360.937" cy="389.921" rx="8.415" ry="0.661"/>
			<path style="clip-path:url(#SVGID_00000083048079157516680170000006168438575707613602_);fill:#4B494B;" d="M369.184,389.921
				c0,0.357-3.692,0.648-8.247,0.648c-4.554,0-8.246-0.29-8.246-0.648c0-0.357,3.692-0.647,8.246-0.647
				C365.491,389.273,369.184,389.564,369.184,389.921z"/>
			<path style="clip-path:url(#SVGID_00000083048079157516680170000006168438575707613602_);fill:#4A484A;" d="M369.015,389.921
				c0,0.351-3.616,0.634-8.078,0.634c-4.461,0-8.078-0.283-8.078-0.634c0-0.351,3.617-0.634,8.078-0.634
				C365.398,389.287,369.015,389.57,369.015,389.921z"/>
			
				<ellipse style="clip-path:url(#SVGID_00000083048079157516680170000006168438575707613602_);fill:#494749;" cx="360.937" cy="389.921" rx="7.91" ry="0.621"/>
			<path style="clip-path:url(#SVGID_00000083048079157516680170000006168438575707613602_);fill:#484648;" d="M368.679,389.921
				c0,0.336-3.466,0.607-7.742,0.607c-4.275,0-7.741-0.272-7.741-0.607s3.466-0.607,7.741-0.607
				C365.213,389.314,368.679,389.585,368.679,389.921z"/>
			<path style="clip-path:url(#SVGID_00000083048079157516680170000006168438575707613602_);fill:#474547;" d="M368.51,389.921
				c0,0.328-3.391,0.595-7.573,0.595c-4.183,0-7.573-0.267-7.573-0.595s3.391-0.595,7.573-0.595
				C365.119,389.326,368.51,389.593,368.51,389.921z"/>
			<path style="clip-path:url(#SVGID_00000083048079157516680170000006168438575707613602_);fill:#464446;" d="M368.342,389.921
				c0,0.321-3.315,0.581-7.405,0.581c-4.089,0-7.405-0.26-7.405-0.581c0-0.321,3.315-0.581,7.405-0.581
				C365.026,389.34,368.342,389.6,368.342,389.921z"/>
			<path style="clip-path:url(#SVGID_00000083048079157516680170000006168438575707613602_);fill:#454345;" d="M368.174,389.921
				c0,0.314-3.24,0.568-7.237,0.568c-3.997,0-7.236-0.255-7.236-0.568c0-0.313,3.24-0.568,7.236-0.568
				C364.934,389.353,368.174,389.607,368.174,389.921z"/>
			<path style="clip-path:url(#SVGID_00000083048079157516680170000006168438575707613602_);fill:#444244;" d="M368.005,389.921
				c0,0.307-3.164,0.555-7.068,0.555c-3.904,0-7.068-0.248-7.068-0.555c0-0.307,3.165-0.555,7.068-0.555
				C364.841,389.366,368.005,389.614,368.005,389.921z"/>
			
				<ellipse style="clip-path:url(#SVGID_00000083048079157516680170000006168438575707613602_);fill:#434143;" cx="360.937" cy="389.921" rx="6.9" ry="0.542"/>
			<path style="clip-path:url(#SVGID_00000083048079157516680170000006168438575707613602_);fill:#424042;" d="M367.669,389.921
				c0,0.292-3.015,0.528-6.732,0.528c-3.718,0-6.731-0.236-6.731-0.528c0-0.292,3.014-0.528,6.731-0.528
				C364.654,389.393,367.669,389.629,367.669,389.921z"/>
			<path style="clip-path:url(#SVGID_00000083048079157516680170000006168438575707613602_);fill:#413F41;" d="M367.5,389.921
				c0,0.284-2.939,0.516-6.563,0.516c-3.625,0-6.564-0.231-6.564-0.516c0-0.284,2.939-0.516,6.564-0.516
				C364.561,389.405,367.5,389.637,367.5,389.921z"/>
			
				<ellipse style="clip-path:url(#SVGID_00000083048079157516680170000006168438575707613602_);fill:#413E40;" cx="360.937" cy="389.921" rx="6.395" ry="0.502"/>
			<path style="clip-path:url(#SVGID_00000083048079157516680170000006168438575707613602_);fill:#403D3F;" d="M367.164,389.921
				c0,0.27-2.788,0.489-6.227,0.489c-3.439,0-6.227-0.22-6.227-0.489s2.788-0.489,6.227-0.489
				C364.376,389.432,367.164,389.651,367.164,389.921z"/>
			<path style="clip-path:url(#SVGID_00000083048079157516680170000006168438575707613602_);fill:#3F3C3E;" d="M366.995,389.921
				c0,0.263-2.712,0.476-6.058,0.476c-3.346,0-6.059-0.213-6.059-0.476s2.712-0.476,6.059-0.476
				C364.283,389.445,366.995,389.658,366.995,389.921z"/>
			<path style="clip-path:url(#SVGID_00000083048079157516680170000006168438575707613602_);fill:#3E3B3D;" d="M366.827,389.921
				c0,0.256-2.637,0.463-5.89,0.463c-3.253,0-5.89-0.207-5.89-0.463c0-0.256,2.637-0.463,5.89-0.463
				C364.19,389.458,366.827,389.665,366.827,389.921z"/>
			<path style="clip-path:url(#SVGID_00000083048079157516680170000006168438575707613602_);fill:#3D3A3C;" d="M366.659,389.921
				c0,0.248-2.563,0.449-5.722,0.449c-3.16,0-5.722-0.201-5.722-0.449c0-0.248,2.562-0.449,5.722-0.449
				C364.097,389.472,366.659,389.673,366.659,389.921z"/>
			<path style="clip-path:url(#SVGID_00000083048079157516680170000006168438575707613602_);fill:#3C393B;" d="M366.49,389.921
				c0,0.241-2.486,0.437-5.553,0.437c-3.067,0-5.554-0.195-5.554-0.437c0-0.241,2.486-0.436,5.554-0.436
				C364.004,389.484,366.49,389.68,366.49,389.921z"/>
			<path style="clip-path:url(#SVGID_00000083048079157516680170000006168438575707613602_);fill:#3B383A;" d="M366.322,389.921
				c0,0.233-2.411,0.423-5.385,0.423c-2.974,0-5.385-0.189-5.385-0.423s2.411-0.423,5.385-0.423
				C363.911,389.498,366.322,389.688,366.322,389.921z"/>
			<path style="clip-path:url(#SVGID_00000083048079157516680170000006168438575707613602_);fill:#3A3839;" d="M366.154,389.921
				c0,0.227-2.336,0.409-5.217,0.409c-2.881,0-5.217-0.183-5.217-0.409c0-0.227,2.336-0.409,5.217-0.409
				C363.818,389.512,366.154,389.694,366.154,389.921z"/>
			<path style="clip-path:url(#SVGID_00000083048079157516680170000006168438575707613602_);fill:#393738;" d="M365.985,389.921
				c0,0.219-2.26,0.397-5.048,0.397c-2.788,0-5.049-0.178-5.049-0.397c0-0.219,2.261-0.396,5.049-0.396
				C363.726,389.524,365.985,389.702,365.985,389.921z"/>
			
				<ellipse style="clip-path:url(#SVGID_00000083048079157516680170000006168438575707613602_);fill:#383637;" cx="360.937" cy="389.921" rx="4.88" ry="0.383"/>
			<path style="clip-path:url(#SVGID_00000083048079157516680170000006168438575707613602_);fill:#383536;" d="M365.649,389.921
				c0,0.204-2.11,0.37-4.712,0.37c-2.603,0-4.712-0.166-4.712-0.37s2.109-0.37,4.712-0.37
				C363.539,389.551,365.649,389.717,365.649,389.921z"/>
			<path style="clip-path:url(#SVGID_00000083048079157516680170000006168438575707613602_);fill:#373435;" d="M365.48,389.921
				c0,0.197-2.034,0.356-4.543,0.356c-2.509,0-4.544-0.159-4.544-0.356s2.035-0.356,4.544-0.356
				C363.446,389.565,365.48,389.724,365.48,389.921z"/>
			<path style="clip-path:url(#SVGID_00000083048079157516680170000006168438575707613602_);fill:#363334;" d="M365.313,389.921
				c0,0.19-1.959,0.344-4.375,0.344c-2.417,0-4.376-0.154-4.376-0.344c0-0.189,1.959-0.344,4.376-0.344
				C363.353,389.577,365.313,389.731,365.313,389.921z"/>
			<path style="clip-path:url(#SVGID_00000083048079157516680170000006168438575707613602_);fill:#353233;" d="M365.145,389.921
				c0,0.183-1.884,0.33-4.207,0.33c-2.324,0-4.207-0.147-4.207-0.33c0-0.183,1.883-0.33,4.207-0.33
				C363.261,389.591,365.145,389.738,365.145,389.921z"/>
			<path style="clip-path:url(#SVGID_00000083048079157516680170000006168438575707613602_);fill:#343132;" d="M364.976,389.921
				c0,0.175-1.808,0.317-4.039,0.317c-2.231,0-4.039-0.143-4.039-0.317s1.809-0.317,4.039-0.317
				C363.168,389.604,364.976,389.746,364.976,389.921z"/>
			
				<ellipse style="clip-path:url(#SVGID_00000083048079157516680170000006168438575707613602_);fill:#333032;" cx="360.937" cy="389.921" rx="3.871" ry="0.304"/>
			<path style="clip-path:url(#SVGID_00000083048079157516680170000006168438575707613602_);fill:#322F31;" d="M364.64,389.921
				c0,0.16-1.658,0.291-3.703,0.291c-2.045,0-3.702-0.131-3.702-0.291c0-0.16,1.657-0.291,3.702-0.291
				C362.981,389.63,364.64,389.761,364.64,389.921z"/>
			<path style="clip-path:url(#SVGID_00000083048079157516680170000006168438575707613602_);fill:#322E30;" d="M364.471,389.921
				c0,0.153-1.582,0.277-3.534,0.277c-1.952,0-3.534-0.124-3.534-0.277c0-0.153,1.583-0.277,3.534-0.277
				C362.889,389.644,364.471,389.768,364.471,389.921z"/>
			<path style="clip-path:url(#SVGID_00000083048079157516680170000006168438575707613602_);fill:#312E2F;" d="M364.303,389.921
				c0,0.146-1.507,0.265-3.366,0.265c-1.859,0-3.366-0.119-3.366-0.265c0-0.145,1.507-0.265,3.366-0.265
				C362.796,389.656,364.303,389.775,364.303,389.921z"/>
			<path style="clip-path:url(#SVGID_00000083048079157516680170000006168438575707613602_);fill:#302D2E;" d="M364.135,389.921
				c0,0.139-1.432,0.251-3.198,0.251c-1.766,0-3.198-0.112-3.198-0.251s1.432-0.251,3.198-0.251
				C362.703,389.67,364.135,389.782,364.135,389.921z"/>
			<path style="clip-path:url(#SVGID_00000083048079157516680170000006168438575707613602_);fill:#2F2C2D;" d="M363.966,389.921
				c0,0.132-1.355,0.238-3.029,0.238c-1.673,0-3.029-0.107-3.029-0.238c0-0.132,1.357-0.238,3.029-0.238
				C362.61,389.683,363.966,389.789,363.966,389.921z"/>
			<path style="clip-path:url(#SVGID_00000083048079157516680170000006168438575707613602_);fill:#2E2B2C;" d="M363.798,389.921
				c0,0.124-1.281,0.225-2.861,0.225c-1.58,0-2.861-0.101-2.861-0.225c0-0.124,1.281-0.225,2.861-0.225
				C362.517,389.696,363.798,389.797,363.798,389.921z"/>
			<path style="clip-path:url(#SVGID_00000083048079157516680170000006168438575707613602_);fill:#2E2A2B;" d="M363.63,389.921
				c0,0.117-1.206,0.211-2.693,0.211c-1.487,0-2.693-0.094-2.693-0.211c0-0.117,1.206-0.211,2.693-0.211
				C362.424,389.71,363.63,389.804,363.63,389.921z"/>
			<path style="clip-path:url(#SVGID_00000083048079157516680170000006168438575707613602_);fill:#2D292A;" d="M363.461,389.921
				c0,0.109-1.13,0.198-2.524,0.198c-1.394,0-2.524-0.089-2.524-0.198c0-0.109,1.13-0.198,2.524-0.198
				C362.331,389.723,363.461,389.812,363.461,389.921z"/>
			<path style="clip-path:url(#SVGID_00000083048079157516680170000006168438575707613602_);fill:#2C282A;" d="M363.293,389.921
				c0,0.103-1.055,0.185-2.356,0.185c-1.301,0-2.356-0.082-2.356-0.185c0-0.102,1.055-0.185,2.356-0.185
				C362.238,389.736,363.293,389.818,363.293,389.921z"/>
			<path style="clip-path:url(#SVGID_00000083048079157516680170000006168438575707613602_);fill:#2B2829;" d="M363.125,389.921
				c0,0.095-0.98,0.172-2.188,0.172c-1.209,0-2.188-0.077-2.188-0.172s0.979-0.172,2.188-0.172
				C362.145,389.749,363.125,389.826,363.125,389.921z"/>
			<path style="clip-path:url(#SVGID_00000083048079157516680170000006168438575707613602_);fill:#2A2728;" d="M362.956,389.921
				c0,0.088-0.903,0.158-2.019,0.158c-1.115,0-2.02-0.07-2.02-0.158c0-0.088,0.904-0.158,2.02-0.158
				C362.053,389.763,362.956,389.833,362.956,389.921z"/>
			
				<ellipse style="clip-path:url(#SVGID_00000083048079157516680170000006168438575707613602_);fill:#2A2627;" cx="360.937" cy="389.921" rx="1.851" ry="0.145"/>
			
				<ellipse style="clip-path:url(#SVGID_00000083048079157516680170000006168438575707613602_);fill:#292526;" cx="360.937" cy="389.921" rx="1.683" ry="0.132"/>
			<path style="clip-path:url(#SVGID_00000083048079157516680170000006168438575707613602_);fill:#282426;" d="M362.451,389.921
				c0,0.065-0.678,0.119-1.514,0.119c-0.836,0-1.515-0.054-1.515-0.119s0.678-0.119,1.515-0.119
				C361.773,389.802,362.451,389.855,362.451,389.921z"/>
			
				<ellipse style="clip-path:url(#SVGID_00000083048079157516680170000006168438575707613602_);fill:#272425;" cx="360.937" cy="389.921" rx="1.346" ry="0.105"/>
			<path style="clip-path:url(#SVGID_00000083048079157516680170000006168438575707613602_);fill:#272324;" d="M362.115,389.921
				c0,0.051-0.527,0.093-1.178,0.093c-0.65,0-1.178-0.042-1.178-0.093c0-0.051,0.528-0.093,1.178-0.093
				C361.588,389.828,362.115,389.87,362.115,389.921z"/>
			<path style="clip-path:url(#SVGID_00000083048079157516680170000006168438575707613602_);fill:#262223;" d="M361.946,389.921
				c0,0.044-0.451,0.079-1.009,0.079c-0.558,0-1.01-0.035-1.01-0.079c0-0.044,0.452-0.079,1.01-0.079
				C361.495,389.842,361.946,389.877,361.946,389.921z"/>
			<path style="clip-path:url(#SVGID_00000083048079157516680170000006168438575707613602_);fill:#252122;" d="M361.778,389.921
				c0,0.036-0.377,0.066-0.841,0.066c-0.465,0-0.841-0.03-0.841-0.066s0.376-0.066,0.841-0.066
				C361.401,389.855,361.778,389.885,361.778,389.921z"/>
			<path style="clip-path:url(#SVGID_00000083048079157516680170000006168438575707613602_);fill:#252122;" d="M361.61,389.921
				c0,0.029-0.302,0.053-0.673,0.053c-0.372,0-0.673-0.023-0.673-0.053s0.302-0.053,0.673-0.053
				C361.309,389.868,361.61,389.892,361.61,389.921z"/>
			<path style="clip-path:url(#SVGID_00000083048079157516680170000006168438575707613602_);fill:#242021;" d="M361.441,389.921
				c0,0.022-0.226,0.04-0.504,0.04c-0.279,0-0.505-0.018-0.505-0.04c0-0.021,0.226-0.04,0.505-0.04
				C361.216,389.881,361.441,389.899,361.441,389.921z"/>
			<path style="clip-path:url(#SVGID_00000083048079157516680170000006168438575707613602_);fill:#232021;" d="M361.273,389.921
				c0,0.015-0.15,0.026-0.336,0.026c-0.186,0-0.336-0.012-0.336-0.026c0-0.015,0.15-0.026,0.336-0.026
				C361.123,389.895,361.273,389.906,361.273,389.921z"/>
			<path style="clip-path:url(#SVGID_00000083048079157516680170000006168438575707613602_);fill:#231F20;" d="M361.105,389.921
				c0,0.007-0.075,0.014-0.168,0.014c-0.093,0-0.168-0.007-0.168-0.014c0-0.007,0.076-0.014,0.168-0.014
				C361.03,389.907,361.105,389.914,361.105,389.921z"/>
		</g>
	</g>
	
		<radialGradient id="SVGID_00000033361370213049202930000010915263635700676232_" cx="397.4424" cy="362.571" r="14.6165" gradientUnits="userSpaceOnUse">
		<stop  offset="0" style="stop-color:#000000"/>
		<stop  offset="0.0581" style="stop-color:#141414"/>
		<stop  offset="0.1766" style="stop-color:#494949"/>
		<stop  offset="0.2788" style="stop-color:#7A7A7A"/>
		<stop  offset="0.2967" style="stop-color:#838383"/>
		<stop  offset="0.3833" style="stop-color:#A9A9A9"/>
		<stop  offset="0.4736" style="stop-color:#C8C8C8"/>
		<stop  offset="0.5674" style="stop-color:#E0E0E0"/>
		<stop  offset="0.6661" style="stop-color:#F2F2F2"/>
		<stop  offset="0.773" style="stop-color:#FCFCFC"/>
		<stop  offset="0.903" style="stop-color:#FFFFFF"/>
	</radialGradient>
	<path style="fill:url(#SVGID_00000033361370213049202930000010915263635700676232_);" d="M412.926,362.568
		c0,8.826-7.007,15.986-15.648,15.986c-8.642,0-15.649-7.16-15.649-15.986c0-8.825,7.007-15.981,15.649-15.981
		C405.919,346.587,412.926,353.744,412.926,362.568z"/>
	<g>
		<polygon style="fill:#FFFFFF;" points="311.353,329.462 311.353,358.821 318.408,351.311 326.146,366.559 331.154,364.208 
			323.643,349.035 332.671,347.973 		"/>
		
			<linearGradient id="SVGID_00000154402326929925732220000015596202970433279143_" gradientUnits="userSpaceOnUse" x1="310.3161" y1="351.9101" x2="338.2744" y2="339.2623">
			<stop  offset="0" style="stop-color:#7A7A7A"/>
			<stop  offset="0.0162" style="stop-color:#838383"/>
			<stop  offset="0.0942" style="stop-color:#A9A9A9"/>
			<stop  offset="0.1756" style="stop-color:#C8C8C8"/>
			<stop  offset="0.2602" style="stop-color:#E0E0E0"/>
			<stop  offset="0.3493" style="stop-color:#F2F2F2"/>
			<stop  offset="0.4457" style="stop-color:#FCFCFC"/>
			<stop  offset="0.5629" style="stop-color:#FFFFFF"/>
			<stop  offset="0.9461" style="stop-color:#FFFFFF"/>
		</linearGradient>
		<polygon style="fill:url(#SVGID_00000154402326929925732220000015596202970433279143_);" points="311.353,329.631 
			311.353,358.821 318.408,351.311 326.146,366.559 328.78,365.324 		"/>
		
			<linearGradient id="SVGID_00000054947151492671625460000001202290604667557248_" gradientUnits="userSpaceOnUse" x1="315.8766" y1="360.5738" x2="329.2885" y2="325.3966">
			<stop  offset="0" style="stop-color:#000000"/>
			<stop  offset="0.1225" style="stop-color:#141414"/>
			<stop  offset="0.3725" style="stop-color:#494949"/>
			<stop  offset="0.5879" style="stop-color:#7A7A7A"/>
			<stop  offset="0.6459" style="stop-color:#858585"/>
			<stop  offset="0.7453" style="stop-color:#A0A0A0"/>
			<stop  offset="0.8733" style="stop-color:#CCCCCC"/>
			<stop  offset="1" style="stop-color:#FFFFFF"/>
		</linearGradient>
		<path style="fill:url(#SVGID_00000054947151492671625460000001202290604667557248_);" d="M325.734,367.758l-7.549-14.878
			l-7.742,8.24v-33.652l24.382,21.169l-9.793,1.151l7.353,14.85L325.734,367.758L325.734,367.758z M318.632,349.741l7.926,15.619
			l3.368-1.58l-7.672-15.498l8.265-0.971l-18.255-15.852v25.063L318.632,349.741L318.632,349.741z"/>
	</g>
	<g>
		
			<radialGradient id="SVGID_00000008116054957255213710000010746672819125327501_" cx="502.5537" cy="299.2739" r="28.8147" gradientTransform="matrix(0.9137 0.4064 -0.4064 0.9137 54.4954 -154.8711)" gradientUnits="userSpaceOnUse">
			<stop  offset="0" style="stop-color:#FFFFFF"/>
			<stop  offset="0.0667" style="stop-color:#FFFBDF"/>
			<stop  offset="0.8061" style="stop-color:#005745"/>
		</radialGradient>
		<polygon style="fill:url(#SVGID_00000008116054957255213710000010746672819125327501_);" points="403.43,371.006 362.807,352.938 
			377.542,319.802 418.166,337.87 		"/>
		
			<radialGradient id="SVGID_00000121250056576336984140000012393907420145539499_" cx="505.0439" cy="305.3003" r="44.0338" gradientTransform="matrix(0.9137 0.4064 -0.4064 0.9137 54.4954 -154.8711)" gradientUnits="userSpaceOnUse">
			<stop  offset="0" style="stop-color:#FFFFFF"/>
			<stop  offset="0.4364" style="stop-color:#FFFFFE"/>
			<stop  offset="1" style="stop-color:#FFFBDF"/>
		</radialGradient>
		<polygon style="fill:url(#SVGID_00000121250056576336984140000012393907420145539499_);" points="403.332,370.77 363.102,352.878 
			377.694,320.063 417.926,337.955 		"/>
		
			<radialGradient id="SVGID_00000095297248346224150740000017618241880470965127_" cx="503.5674" cy="302.9639" r="38.007" gradientTransform="matrix(0.9137 0.4064 -0.4064 0.9137 54.4954 -154.8711)" gradientUnits="userSpaceOnUse">
			<stop  offset="0" style="stop-color:#FFFFFF"/>
			<stop  offset="0.5697" style="stop-color:#E5AB21"/>
			<stop  offset="1" style="stop-color:#ED2024"/>
		</radialGradient>
		<polygon style="fill:url(#SVGID_00000095297248346224150740000017618241880470965127_);" points="402.287,368.278 365.65,351.986 
			378.74,322.553 415.375,338.846 		"/>
		
			<radialGradient id="SVGID_00000075847312017931222420000006614486015996350880_" cx="501.5" cy="300.6255" r="52.8631" gradientTransform="matrix(0.9137 0.4064 -0.4064 0.9137 54.4954 -154.8711)" gradientUnits="userSpaceOnUse">
			<stop  offset="0.0303" style="stop-color:#FFFFFF"/>
			<stop  offset="0.5697" style="stop-color:#E5AB21"/>
			<stop  offset="1" style="stop-color:#ED2024"/>
		</radialGradient>
		<polygon style="fill:url(#SVGID_00000075847312017931222420000006614486015996350880_);" points="408.423,354.478 
			415.375,338.846 378.74,322.553 375.575,329.672 		"/>
	</g>
	<g>
		<path style="fill:#231F20;" d="M328.73,390.484c-1.464,0-2.654-1.191-2.654-2.654v-40.918c0-1.464,1.19-2.655,2.654-2.655h63.321
			c1.463,0,2.655,1.191,2.655,2.655v40.918c0,1.463-1.192,2.654-2.655,2.654H328.73z"/>
		
			<linearGradient id="SVGID_00000155868151301503809910000013159494413863194759_" gradientUnits="userSpaceOnUse" x1="360.3911" y1="336.6948" x2="360.3911" y2="415.1808">
			<stop  offset="0" style="stop-color:#FFFFFF"/>
			<stop  offset="0.5697" style="stop-color:#00ADEF"/>
			<stop  offset="1" style="stop-color:#458FCD"/>
		</linearGradient>
		<path style="fill:url(#SVGID_00000155868151301503809910000013159494413863194759_);" d="M394.482,387.83
			c0,1.343-1.088,2.432-2.431,2.432H328.73c-1.342,0-2.431-1.089-2.431-2.432v-40.918c0-1.343,1.088-2.431,2.431-2.431h63.321
			c1.343,0,2.431,1.088,2.431,2.431V387.83z"/>
		
			<linearGradient id="SVGID_00000070838223304991970200000006040818612875131819_" gradientUnits="userSpaceOnUse" x1="360.3913" y1="399.6152" x2="360.3913" y2="324.0273">
			<stop  offset="0.2182" style="stop-color:#FFFFFF"/>
			<stop  offset="0.5697" style="stop-color:#00ADEF"/>
			<stop  offset="1" style="stop-color:#458FCD"/>
		</linearGradient>
		<path style="fill:url(#SVGID_00000070838223304991970200000006040818612875131819_);" d="M328.73,390.037
			c-1.217,0-2.208-0.99-2.208-2.207v-40.918c0-1.217,0.991-2.208,2.208-2.208h63.321c1.218,0,2.208,0.991,2.208,2.208v40.918
			c0,1.217-0.99,2.207-2.208,2.207H328.73z"/>
		
			<linearGradient id="SVGID_00000012463521787865468610000017037517817622078366_" gradientUnits="userSpaceOnUse" x1="360.3904" y1="337.2939" x2="360.3904" y2="414.2472">
			<stop  offset="0" style="stop-color:#FFFFFF"/>
			<stop  offset="0.5697" style="stop-color:#00ADEF"/>
			<stop  offset="1" style="stop-color:#458FCD"/>
		</linearGradient>
		<path style="fill:url(#SVGID_00000012463521787865468610000017037517817622078366_);" d="M328.73,389.815
			c-1.094,0-1.984-0.891-1.984-1.984v-40.918c0-1.094,0.89-1.984,1.984-1.984h63.321c1.094,0,1.982,0.89,1.982,1.984v40.918
			c0,1.094-0.889,1.984-1.982,1.984H328.73z"/>
	</g>
</g>
</svg>
